<svg width="24" height="24" fill="none" xmlns="http://www.w3.org/2000/svg"><path d="M22.872 10.953l-2.997-2.665V4.19L16.435.75h-9.31v6H3.75a1.126 1.126 0 00-1.125 1.125v14.25A1.126 1.126 0 003.75 23.25h19.5V11.793a1.126 1.126 0 00-.378-.84zM7.125 21.75h-3V8.25h3v13.5zm8.25-19.5h.44l2.56 2.56v.44h-3v-3zm-6.75 0h5.25v4.5h4.5v3.375h-9.75V2.25zm13.125 19.5H8.625V11.625h11.25v-1.33l1.875 1.667v9.788z" fill="#268DA6"/><path d="M12.375 16.125h-1.5v1.5h1.5v-1.5zM15.375 16.125h-1.5v1.5h1.5v-1.5zM12.375 19.125h-1.5v1.5h1.5v-1.5zM15.375 19.125h-1.5v1.5h1.5v-1.5zM18.375 16.125h-1.5v1.5h1.5v-1.5zM18.375 19.125h-1.5v1.5h1.5v-1.5zM18.375 13.125h-7.5v1.5h7.5v-1.5z" fill="#268DA6"/></svg>