<svg width="18" height="24" fill="none" xmlns="http://www.w3.org/2000/svg"><path d="M8.828 0c4.86 0 8.818 4.317 8.818 9.62a10.301 10.301 0 01-.217 2.128c-.133.65-.332 1.289-.59 1.897-.95 2.44-3.04 6.189-7.624 10.204a.595.595 0 01-.392.151.595.595 0 01-.392-.15C3.85 19.833 1.757 16.084.807 13.644a9.964 9.964 0 01-.65-2.219A10.766 10.766 0 010 9.62C.01 4.317 3.966 0 8.828 0zM1.393 11.19c0 .01.004.02.004.03l.042.216v.01c.115.564.286 1.113.512 1.64.004.006.004.016.009.02.863 2.23 2.753 5.631 6.868 9.34 4.114-3.709 6.005-7.11 6.867-9.34.005-.004.005-.014.01-.02a9.058 9.058 0 00.511-1.64v-.01c.028-.115.037-.19.042-.216 0-.01.004-.02.004-.035a8.935 8.935 0 00.139-1.57c0-4.553-3.4-8.262-7.573-8.262-4.174 0-7.574 3.709-7.574 8.262 0 .533.046 1.062.139 1.575z" fill="#268DA6"/><path d="M8.828 3.618c3.085 0 5.599 2.742 5.599 6.108 0 3.366-2.514 6.108-5.6 6.108-3.085 0-5.599-2.742-5.599-6.108 0-3.366 2.514-6.108 5.6-6.108zm0 10.857c2.402 0 4.354-2.133 4.354-4.75 0-2.615-1.956-4.749-4.354-4.749-2.399 0-4.354 2.133-4.354 4.75 0 2.616 1.95 4.75 4.354 4.75z" fill="#268DA6"/></svg>