<svg width="28" height="28" fill="none" xmlns="http://www.w3.org/2000/svg"><g clip-path="url(#clip0)"><path d="M4.9 28h17.6c2.706 0 5.5.707 5.5-2V2.5C28-.206 25.706 0 23 0H4.9C2.194 0 0-.206 0 2.5V26c0 2.707 2.194 2 4.9 2z" fill="url(#paint0_radial)"/><path d="M19.25 24.5H8.75a5.25 5.25 0 01-5.25-5.25V8.75A5.25 5.25 0 018.75 3.5h10.5a5.25 5.25 0 015.25 5.25v10.5a5.25 5.25 0 01-5.25 5.25zM8.75 5.6A3.154 3.154 0 005.6 8.75v10.5a3.154 3.154 0 003.15 3.15h10.5a3.154 3.154 0 003.15-3.15V8.75a3.155 3.155 0 00-3.15-3.15H8.75z" fill="#fff"/><path d="M14 19.95a5.95 5.95 0 110-11.9 5.95 5.95 0 010 11.9zm0-9.8a3.85 3.85 0 100 7.7 3.85 3.85 0 000-7.7zM19.95 9.45a1.05 1.05 0 100-2.1 1.05 1.05 0 000 2.1z" fill="#fff"/></g><defs><radialGradient id="paint0_radial" cx="0" cy="0" r="1" gradientUnits="userSpaceOnUse" gradientTransform="rotate(180 -.282 13.716) scale(64.6603)"><stop stop-color="#F9ED32"/><stop offset=".36" stop-color="#EE2A7B"/><stop offset=".44" stop-color="#D22A8A"/><stop offset=".6" stop-color="#8B2AB2"/><stop offset=".83" stop-color="#1B2AF0"/><stop offset=".88" stop-color="#002AFF"/></radialGradient><clipPath id="clip0"><path fill="#fff" d="M0 0h28v28H0z"/></clipPath></defs></svg>