<svg width="90" height="28" fill="none" xmlns="http://www.w3.org/2000/svg"><g clip-path="url(#clip0)" fill="#fff"><path fill-rule="evenodd" clip-rule="evenodd" d="M11.772.11h2.396c.199 0 .398.189.398.378v2.325c0 .188-.2.314-.398.314h-2.396c-.267 0-.399-.126-.399-.314V.488c-.002-.19.132-.377.399-.377zM7.979.11h2.396c.266 0 .398.189.398.378v2.325c0 .188-.133.314-.398.314H7.979c-.2 0-.399-.126-.399-.314V.488c-.002-.19.198-.377.399-.377zM4.252.11h2.396c.2 0 .399.189.399.378v2.325c0 .188-.2.314-.399.314H4.252c-.267 0-.398-.126-.398-.314V.488c-.002-.19.131-.377.398-.377zM.923 3.692h5.19c.578 0 .865.408.865.817v4.899c0 .408-.287.817-.864.817H.924c-.433 0-.865-.408-.865-.817v-4.9c0-.408.432-.816.864-.816zM4.252 10.79h2.396c.2 0 .399.188.399.377v2.26c0 .189-.2.378-.399.378H4.252c-.267 0-.398-.188-.398-.377v-2.26c-.002-.19.131-.378.398-.378zM15.498 14.307h2.396c.267 0 .399.188.399.378v2.324c0 .188-.134.314-.399.314h-2.396c-.2 0-.398-.126-.398-.314v-2.324c-.002-.19.197-.378.398-.378zM15.498 24.986h2.396c.267 0 .399.188.399.377v2.261c0 .188-.134.378-.399.378h-2.396c-.2 0-.398-.188-.398-.378v-2.26c-.002-.19.197-.378.398-.378zM11.772 24.986h2.396c.199 0 .398.188.398.377v2.261c0 .188-.2.378-.398.378h-2.396c-.267 0-.399-.188-.399-.378v-2.26c-.002-.19.132-.378.399-.378zM7.979 24.986h2.396c.266 0 .398.188.398.377v2.261c0 .188-.133.378-.398.378H7.979c-.2 0-.399-.188-.399-.378v-2.26c-.002-.19.198-.378.399-.378zM8.457 10.71h5.19c.578 0 .865.408.865.818v4.899c0 .407-.287.817-.864.817h-5.19c-.433 0-.865-.408-.865-.817v-4.9c0-.409.432-.817.864-.817zM15.972 0h5.19c.578 0 .865.408.865.817v4.9c0 .407-.288.816-.864.816h-5.191c-.432 0-.865-.407-.865-.817V.817c-.001-.41.433-.817.865-.817zM.865 21.404h5.19c.577 0 .865.408.865.817v4.9c0 .407-.288.817-.865.817H.865c-.433 0-.865-.408-.865-.818v-4.899c0-.407.432-.817.865-.817zM15.903 17.944h5.19c.577 0 .865.408.865.818v4.898c0 .408-.288.818-.865.818h-5.19c-.433 0-.865-.408-.865-.818v-4.898c0-.41.432-.818.865-.818z"/><path d="M23.398 21.275h.344v2.393l1.822-2.393h.328v2.883h-.34v-2.393l-1.82 2.393h-.335v-2.883h.001zM27.676 23.74l.206-.225c.31.276.633.412 1.073.412.374 0 .71-.213.71-.556 0-.375-.358-.53-.824-.53h-.336v-.268h.336c.435 0 .745-.201.745-.543 0-.295-.287-.514-.689-.514-.344 0-.633.099-.898.325l-.201-.226c.305-.247.623-.384 1.107-.384.606 0 1.03.325 1.03.77 0 .387-.28.586-.557.68.361.103.64.324.64.708 0 .456-.431.819-1.068.819-.529-.002-.916-.158-1.274-.467zM31.49 23.86h.313c.292-.44.463-1.149.463-2.083v-.502h1.997v2.585h.397l-.053.94h-.288v-.644h-2.478l-.06.643h-.293v-.939h.001zm2.43 0v-2.289h-1.322v.375c0 .745-.152 1.519-.405 1.914h1.726zM37.464 21.254h.323l1.392 2.902h-.372l-.358-.76h-1.662l-.361.76h-.354l1.392-2.902zm.85 1.85l-.694-1.469-.698 1.47h1.392zM41.76 21.571h-1.026v-.296h2.4v.296h-1.026v2.585h-.348v-2.585zM44.946 21.275h2.207v.296H45.29v.984h1.667v.296H45.29v1.008h1.884v.296h-2.23v-2.88h.002zM48.596 24.12l.069-.264a.88.88 0 00.27.041c.236 0 .633-.136.633-2.1v-.523h1.975v2.882h-.344v-2.585h-1.3v.312c0 2.022-.435 2.307-.908 2.307-.133 0-.317-.041-.395-.07zM53.574 21.275h.344v1.116h.771c.654 0 1.186.248 1.186.848 0 .564-.44.919-1.134.919h-1.169v-2.883h.002zm1.16 2.585c.489 0 .799-.206.799-.613 0-.375-.314-.565-.82-.565h-.794v1.178h.815zM57.542 22.716c0-.816.646-1.49 1.544-1.49.555 0 .876.194 1.183.465l-.227.23c-.257-.23-.544-.395-.959-.395-.676 0-1.183.518-1.183 1.19 0 .667.511 1.19 1.183 1.19.42 0 .694-.151.985-.415l.227.226c-.318.305-.667.49-1.221.49-.881 0-1.532-.654-1.532-1.491zM62.068 21.275h.344v1.721l1.753-1.72h.446l-1.309 1.26 1.365 1.622h-.432l-1.173-1.397-.65.622v.773h-.344v-2.88zM66.374 21.275h.344v2.393l1.822-2.393h.328v2.883h-.34v-2.393l-1.82 2.393h-.336v-2.883h.002zM70.912 21.275h.344v2.393l1.823-2.393h.327v2.883h-.34v-2.393l-1.82 2.393h-.335v-2.883h.001zm.646-.746l.236-.045c.053.177.176.288.39.288.213 0 .335-.11.388-.288l.236.045a.61.61 0 01-.623.507c-.334 0-.575-.214-.627-.507zM77.356 23.86h.313c.293-.44.463-1.149.463-2.083v-.502h1.998v2.585h.397l-.052.94h-.287v-.644H77.71l-.062.643h-.292v-.939zm2.43 0v-2.289h-1.321v.375c0 .745-.153 1.519-.405 1.914h1.726zM82.066 22.716c0-.794.633-1.49 1.562-1.49s1.552.686 1.552 1.49c0 .794-.633 1.49-1.562 1.49s-1.552-.686-1.552-1.49zm2.756 0c0-.655-.506-1.19-1.204-1.19-.697 0-1.195.527-1.195 1.19 0 .655.506 1.19 1.203 1.19.7 0 1.196-.527 1.196-1.19zM87.078 21.275h.349l1.112 1.573 1.112-1.573H90v2.883h-.344v-2.335l-1.112 1.543h-.018l-1.112-1.54v2.33h-.336v-2.88zM33.774 18.828a7.172 7.172 0 01-2.017-2.002h-5.001v-3.033h3.887a7.477 7.477 0 01.015-2.035h-3.902V8.824h5.028a7.421 7.421 0 012.255-2.153H23.807v12.157h9.967zM70.86 18.828a7.174 7.174 0 01-2.017-2.002h-5.001v-3.033h3.887a7.492 7.492 0 01.014-2.035h-3.901V8.824h5.028a7.423 7.423 0 012.255-2.153H60.893v12.157h9.967z"/><path d="M36.09 18.828h5.99a9.256 9.256 0 002.611-1.35v-5.379h-5.59v1.824h2.806v2.325l-.216.133c-.686.425-1.515.63-2.539.63-2.515 0-4.34-1.755-4.34-4.172 0-2.34 1.808-4.172 4.115-4.172 1.263 0 2.293.329 3.367 1.09l1.711-1.942a7.699 7.699 0 00-2.192-1.142h-5.549c-2.712.917-4.544 3.242-4.544 6.11.001 2.842 1.727 5.098 4.37 6.045zM56.43 6.671l-3.588 5.497-3.588-5.497h-3.497V18.84h2.909v-8.486l4.134 5.966 4.158-6.006v8.526h2.97V6.671H56.43zM81.671 8.919h.034v.015h1.609v9.893h3.227V8.934h4.03V6.668H79.16a7.873 7.873 0 012.511 2.25z"/><path d="M72.17 18.559v-8.082l6.85 8.352h2.684V8.928h-2.661l-.048 5.892-6.472-7.894c-1.277.552-2.335 1.44-3.04 2.57l-.021.034v6.633c.632 1.023 1.567 1.844 2.708 2.396z"/></g><defs><clipPath id="clip0"><path fill="#fff" d="M0 0h90v28H0z"/></clipPath></defs></svg>