<svg width="147" height="48" fill="none" xmlns="http://www.w3.org/2000/svg"><g clip-path="url(#clip0)"><path fill-rule="evenodd" clip-rule="evenodd" d="M19.226.19h3.914c.325 0 .65.322.65.647v3.985c0 .322-.325.538-.65.538h-3.914c-.435 0-.65-.216-.65-.538V.837c-.003-.325.215-.647.65-.647zM13.032.19h3.913c.436 0 .651.322.651.647v3.985c0 .322-.218.538-.65.538h-3.914c-.326 0-.651-.216-.651-.538V.837c-.003-.325.323-.647.65-.647zM6.945.19h3.913c.326 0 .651.322.651.647v3.985c0 .322-.325.538-.65.538H6.944c-.436 0-.651-.216-.651-.538V.837c-.003-.325.215-.647.65-.647zM1.51 6.33h8.477c.943 0 1.412.698 1.412 1.4v8.398c0 .7-.47 1.401-1.412 1.401H1.51c-.706 0-1.412-.699-1.412-1.4V7.726c0-.699.706-1.398 1.412-1.398z" fill="#268DA6"/><path fill-rule="evenodd" clip-rule="evenodd" d="M6.945 18.496h3.913c.326 0 .651.322.651.647v3.876c0 .322-.325.647-.65.647H6.944c-.436 0-.651-.322-.651-.647v-3.876c-.003-.325.215-.647.65-.647zM25.313 24.526h3.914c.435 0 .65.323.65.648v3.984c0 .322-.217.538-.65.538h-3.914c-.325 0-.65-.216-.65-.538v-3.984c-.003-.325.322-.648.65-.648z" fill="#5B6164"/><path fill-rule="evenodd" clip-rule="evenodd" d="M25.313 42.833h3.914c.435 0 .65.322.65.647v3.875c0 .323-.217.647-.65.647h-3.914c-.325 0-.65-.322-.65-.647V43.48c-.003-.325.322-.647.65-.647zM19.226 42.833h3.914c.325 0 .65.322.65.647v3.875c0 .323-.325.647-.65.647h-3.914c-.435 0-.65-.322-.65-.647V43.48c-.003-.325.215-.647.65-.647zM13.032 42.833h3.913c.436 0 .651.322.651.647v3.875c0 .323-.218.647-.65.647h-3.914c-.326 0-.651-.322-.651-.647V43.48c-.003-.325.323-.647.65-.647z" fill="#268DA6"/><path fill-rule="evenodd" clip-rule="evenodd" d="M13.814 18.36h8.478c.942 0 1.412.7 1.412 1.402v8.398c0 .7-.47 1.4-1.412 1.4h-8.478c-.706 0-1.412-.698-1.412-1.4v-8.4c0-.7.706-1.4 1.412-1.4z" fill="#5B6164"/><path fill-rule="evenodd" clip-rule="evenodd" d="M26.088 0h8.478c.942 0 1.412.7 1.412 1.401v8.398c0 .7-.47 1.401-1.412 1.401h-8.478c-.706 0-1.412-.7-1.412-1.4V1.4C24.673.699 25.382 0 26.088 0zM1.412 36.693H9.89c.942 0 1.412.7 1.412 1.401v8.398c0 .7-.47 1.401-1.412 1.401H1.412c-.706 0-1.412-.699-1.412-1.4v-8.399c0-.699.706-1.4 1.412-1.4zM25.975 30.762h8.478c.942 0 1.412.699 1.412 1.4v8.399c0 .699-.47 1.4-1.412 1.4h-8.478c-.706 0-1.413-.698-1.413-1.4v-8.398c0-.702.707-1.401 1.413-1.401z" fill="#268DA6"/><path d="M38.217 36.473h.561v4.101l2.977-4.101h.535v4.94h-.556v-4.1l-2.972 4.1h-.548v-4.94h.003zM45.204 40.699l.336-.388c.506.474 1.034.707 1.753.707.611 0 1.16-.366 1.16-.953 0-.642-.585-.91-1.346-.91h-.549v-.458h.549c.71 0 1.218-.345 1.218-.93 0-.507-.47-.881-1.127-.881a2.09 2.09 0 00-1.467.556l-.328-.387c.499-.424 1.019-.658 1.809-.658.99 0 1.682.556 1.682 1.32 0 .663-.457 1.004-.91 1.165.59.177 1.047.556 1.047 1.214 0 .782-.706 1.403-1.746 1.403-.863-.002-1.496-.27-2.081-.8zM51.432 40.904h.512c.478-.756.756-1.97.756-3.571v-.86h3.263v4.431h.648l-.087 1.61h-.47V41.41h-4.047l-.1 1.102h-.477v-1.609h.002zm3.969 0V36.98h-2.158v.642c0 1.28-.249 2.605-.661 3.283h2.819zM61.191 36.436h.528l2.273 4.975h-.607l-.585-1.305h-2.714l-.59 1.305h-.578l2.273-4.975zm1.389 3.171l-1.134-2.519-1.14 2.52h2.274zM68.207 36.98h-1.674v-.507h3.918v.507h-1.674v4.431h-.57V36.98zM73.412 36.473h3.604v.507h-3.043v1.686h2.722v.507h-2.721v1.729h3.076v.507h-3.64v-4.936h.002zM79.373 41.349l.113-.453c.079.037.286.07.44.07.387 0 1.035-.233 1.035-3.6v-.896h3.226v4.94h-.562v-4.43h-2.123v.535c0 3.464-.712 3.953-1.483 3.953-.218 0-.517-.07-.646-.12zM87.505 36.473h.561v1.913h1.26c1.068 0 1.937.423 1.937 1.453 0 .967-.719 1.575-1.853 1.575h-1.908v-4.941h.003zm1.895 4.431c.798 0 1.304-.353 1.304-1.052 0-.642-.512-.967-1.338-.967h-1.297v2.02h1.33zM93.985 38.942c0-1.399 1.055-2.555 2.523-2.555.905 0 1.43.332 1.932.798l-.37.395c-.42-.395-.89-.679-1.567-.679-1.106 0-1.932.89-1.932 2.04 0 1.144.834 2.041 1.931 2.041.686 0 1.134-.26 1.61-.712l.37.387c-.52.523-1.09.84-1.995.84-1.439 0-2.502-1.12-2.502-2.555zM101.379 36.473h.562v2.95l2.863-2.95h.727l-2.136 2.16 2.228 2.78h-.706l-1.916-2.393-1.06 1.066v1.325h-.562v-4.938zM108.411 36.473h.562v4.101l2.976-4.101h.535v4.94h-.556v-4.1l-2.971 4.1h-.549v-4.94h.003zM115.823 36.472h.562v4.102l2.977-4.102h.535v4.942h-.556v-4.102l-2.972 4.102h-.548v-4.942h.002zm1.056-1.278l.385-.078c.087.304.287.494.636.494.349 0 .548-.19.635-.494l.386.078c-.087.501-.478.868-1.019.868-.546 0-.939-.367-1.023-.868zM126.348 40.904h.512c.478-.756.756-1.97.756-3.571v-.86h3.262v4.431h.649l-.084 1.61h-.47V41.41h-4.047l-.1 1.102h-.478v-1.609zm3.969 0V36.98h-2.158v.642c0 1.28-.249 2.605-.661 3.283h2.819zM134.042 38.942c0-1.362 1.034-2.555 2.551-2.555 1.517 0 2.535 1.177 2.535 2.555 0 1.362-1.034 2.555-2.551 2.555-1.517 0-2.535-1.178-2.535-2.555zm4.501 0c0-1.123-.827-2.04-1.966-2.04s-1.953.904-1.953 2.04c0 1.123.827 2.04 1.966 2.04 1.142 0 1.953-.904 1.953-2.04zM142.228 36.473h.57l1.816 2.695 1.816-2.695h.57v4.94h-.562v-4.002l-1.816 2.646h-.029l-1.816-2.64v3.994h-.549v-4.938z" fill="#268DA6"/><path d="M55.163 32.277a12.018 12.018 0 01-3.294-3.433h-8.168v-5.199h6.349a13.46 13.46 0 01.024-3.488H43.7v-5.03h8.213a12.4 12.4 0 013.682-3.69H38.884v20.84h16.28zM115.738 32.277a12.011 12.011 0 01-3.294-3.433h-8.169v-5.199h6.35a13.525 13.525 0 01.023-3.488h-6.373v-5.03h8.213a12.407 12.407 0 013.683-3.69H99.459v20.84h16.279z" fill="#5B6164"/><path d="M58.945 32.278h9.786a14.886 14.886 0 004.265-2.316v-9.22h-9.132v3.127h4.583v3.985l-.352.228c-1.12.728-2.475 1.082-4.147 1.082-4.108 0-7.09-3.01-7.09-7.154 0-4.01 2.954-7.153 6.723-7.153 2.063 0 3.745.565 5.499 1.87l2.795-3.33a12.373 12.373 0 00-3.58-1.957H59.23c-4.43 1.572-7.422 5.557-7.422 10.474.002 4.871 2.821 8.739 7.136 10.364zM92.17 11.437l-5.861 9.422-5.861-9.423h-5.712v20.86h4.751V17.746l6.754 10.228 6.79-10.295v14.615h4.85V11.437H92.17zM133.397 15.289h.055v.026h2.627v16.96h5.271v-16.96h6.583v-3.883h-18.639c1.659 1 3.056 2.31 4.103 3.857z" fill="#5B6164"/><path d="M117.877 31.815V17.96l11.189 14.317h4.384V15.305h-4.347l-.079 10.1-10.57-13.532c-2.086.947-3.814 2.467-4.966 4.406l-.034.057v11.372c1.032 1.755 2.559 3.16 4.423 4.107z" fill="#5B6164"/></g><defs><clipPath id="clip0"><path fill="#fff" d="M0 0h147v48H0z"/></clipPath></defs></svg>