<svg width="24" height="24" fill="none" xmlns="http://www.w3.org/2000/svg"><g clip-path="url(#clip0)" fill="#268DA6"><path d="M21.887 5.968a.561.561 0 00-.788-.115l-9.073 6.773a.187.187 0 01-.225 0L2.906 5.823a.563.563 0 00-.682.895l6.993 5.35-6.916 5.212a.566.566 0 10.676.907l7.169-5.411.97.75a1.312 1.312 0 001.582.011l1.02-.761 7.252 5.411a.563.563 0 10.673-.902l-6.986-5.22 7.116-5.315a.563.563 0 00.114-.782z"/><path d="M21.188 3.563H2.813A2.813 2.813 0 000 6.374v11.25a2.812 2.812 0 002.813 2.813h18.375A2.812 2.812 0 0024 17.625V6.375a2.812 2.812 0 00-2.813-2.813zm1.687 14.062a1.687 1.687 0 01-1.688 1.688H2.813a1.687 1.687 0 01-1.687-1.688V6.375a1.687 1.687 0 011.688-1.688h18.375a1.687 1.687 0 011.687 1.688v11.25z"/></g><defs><clipPath id="clip0"><path fill="#fff" d="M0 0h24v24H0z"/></clipPath></defs></svg>