<svg width="24" height="24" fill="none" xmlns="http://www.w3.org/2000/svg"><g clip-path="url(#clip0)" fill="#268DA6"><path d="M20.52 3.144A10.664 10.664 0 0012.93 0a.85.85 0 100 1.701c2.413 0 4.682.94 6.388 2.646a8.974 8.974 0 012.646 6.388.85.85 0 001.7 0c.001-2.868-1.116-5.563-3.143-7.591z"/><path d="M17.022 10.735a.85.85 0 101.701 0 5.8 5.8 0 00-5.793-5.793.85.85 0 000 1.701 4.097 4.097 0 014.092 4.092zM15.14 15.072c-1.297-.067-1.957.897-2.274 1.36a.85.85 0 101.404.96c.374-.547.544-.633.774-.622.736.087 3.636 2.211 3.926 2.875.073.196.07.388-.008.621-.305.904-.808 1.538-1.458 1.836-.616.283-1.373.257-2.186-.074-3.037-1.238-5.69-2.965-7.885-5.134l-.003-.003c-2.164-2.193-3.889-4.843-5.124-7.875-.331-.814-.357-1.57-.074-2.187.297-.649.932-1.153 1.835-1.457.234-.078.425-.08.62-.009.666.292 2.79 3.19 2.876 3.919.012.238-.074.408-.621.781a.85.85 0 10.96 1.405c.463-.316 1.427-.975 1.36-2.276-.074-1.359-2.717-4.958-3.98-5.422-.562-.21-1.153-.213-1.757-.01-1.36.458-2.342 1.274-2.84 2.36C.202 7.175.218 8.397.73 9.658c1.323 3.245 3.173 6.084 5.5 8.439a.534.534 0 00.017.017c2.353 2.322 5.19 4.169 8.43 5.49a5.047 5.047 0 001.899.396c.575 0 1.126-.117 1.637-.352 1.087-.497 1.903-1.48 2.361-2.84.202-.603.2-1.194-.009-1.753-.466-1.266-4.064-3.91-5.425-3.983z"/></g><defs><clipPath id="clip0"><path fill="#fff" d="M0 0h24v24H0z"/></clipPath></defs></svg>