<svg width="14" height="24" fill="none" xmlns="http://www.w3.org/2000/svg"><g clip-path="url(#clip0)"><path d="M2.713.25c-.71 0-1.316.267-1.817.8-.5.533-.75 1.167-.75 1.9v18.1c0 .733.25 1.367.75 1.9.501.533 1.107.8 1.817.8h8.285c.71 0 1.316-.267 1.817-.8.5-.533.75-1.167.75-1.9V2.95c0-.733-.25-1.367-.75-1.9-.501-.533-1.107-.8-1.817-.8H2.713zm4.142 22.4c-.436 0-.807-.15-1.114-.45-.307-.3-.46-.675-.46-1.125 0-.45.153-.833.46-1.15a1.494 1.494 0 011.114-.475c.437 0 .8.158 1.09.475.291.317.437.7.437 1.15 0 .45-.146.825-.436 1.125-.291.3-.654.45-1.09.45zM2.18 18.4V3.45h9.302V18.4H2.18z" fill="#268DA6"/></g><defs><clipPath id="clip0"><path fill="#fff" transform="matrix(-1 0 0 1 13.565 0)" d="M0 0h13.565v24H0z"/></clipPath></defs></svg>