<svg width="28" height="29" fill="none" xmlns="http://www.w3.org/2000/svg"><g clip-path="url(#clip0)"><rect y=".488" width="28" height="28" rx="2" fill="#40B3E0"/><path d="M14 .488c-7.732 0-14 6.268-14 14s6.268 14 14 14 14-6.268 14-14-6.268-14-14-14z" fill="#40B3E0"/><path d="M20.812 8.541l-2.5 12.607s-.35.875-1.312.455l-5.77-4.424-2.098-1.014-3.533-1.189s-.542-.192-.594-.612c-.053-.42.612-.647.612-.647L19.658 8.21s1.154-.507 1.154.332" fill="#fff"/><path d="M10.786 21.007s-.168-.016-.378-.68c-.21-.665-1.277-4.162-1.277-4.162l8.481-5.386s.49-.297.472 0c0 0 .088.053-.175.297-.262.245-6.662 5.998-6.662 5.998" fill="#D2E5F1"/><path d="M13.443 18.875l-2.283 2.081s-.178.136-.373.05l.437-3.864" fill="#B5CFE4"/></g><defs><clipPath id="clip0"><path fill="#fff" transform="translate(0 .488)" d="M0 0h28v28H0z"/></clipPath></defs></svg>