<svg width="28" height="29" fill="none" xmlns="http://www.w3.org/2000/svg"><rect y=".456" width="28" height="28" rx="2" fill="#7521FF"/><path d="M13.658 2.46c-1.903.023-5.993.34-8.28 2.464-1.702 1.708-2.296 4.232-2.366 7.353-.058 3.11-.127 8.95 5.433 10.54v2.422s-.035.97.597 1.168c.78.25 1.224-.496 1.964-1.297l1.382-1.582c3.804.32 6.718-.418 7.054-.527.771-.25 5.12-.813 5.83-6.654.729-6.032-.355-9.832-2.312-11.552h-.011c-.59-.55-2.964-2.301-8.265-2.32 0 0-.393-.027-1.026-.016zm.065 1.696c.54-.004.868.019.868.019 4.487.012 6.63 1.38 7.135 1.84 1.647 1.43 2.496 4.856 1.875 9.892-.59 4.883-4.117 5.192-4.77 5.403-.278.09-2.844.73-6.077.52 0 0-2.408 2.942-3.16 3.7-.12.132-.259.171-.348.152-.127-.032-.166-.192-.158-.41l.023-4.02c-4.716-1.32-4.438-6.302-4.388-8.904.058-2.602.54-4.73 1.976-6.172 1.933-1.77 5.406-2.008 7.023-2.02h.001zm.356 2.6a.291.291 0 00-.275.183.301.301 0 00.275.416 5.505 5.505 0 012.148.392c.683.273 1.306.68 1.834 1.198 1.076 1.058 1.6 2.48 1.62 4.34 0 .164.132.3.298.3v-.011c.078 0 .153-.031.209-.087a.302.302 0 00.088-.21 6.534 6.534 0 00-.412-2.568 6.472 6.472 0 00-1.379-2.195c-1.173-1.16-2.659-1.758-4.406-1.758zm-3.905.689a.918.918 0 00-.606.12h-.016c-.423.252-.805.57-1.13.942-.27.316-.417.637-.456.945-.023.184-.007.367.047.543l.019.012a13.6 13.6 0 001.188 2.598 15.273 15.273 0 002.292 3.172l.027.04.042.03.027.033.031.026c.945.91 2 1.694 3.141 2.332 1.304.72 2.095 1.059 2.57 1.2v.007c.14.043.266.063.393.063.405-.03.788-.197 1.089-.473.366-.33.676-.717.918-1.148v-.008c.228-.433.15-.844-.177-1.121a13.678 13.678 0 00-2.123-1.543c-.505-.278-1.018-.11-1.227.172l-.443.566c-.228.281-.641.242-.641.242l-.012.008c-3.083-.798-3.905-3.958-3.905-3.958s-.039-.43.247-.649l.555-.453c.266-.219.452-.738.166-1.25a13.488 13.488 0 00-1.52-2.15.843.843 0 00-.498-.3l.002.002zm4.417.89c-.393 0-.393.602.004.602.49.008.972.114 1.42.311.45.197.856.482 1.196.838a3.536 3.536 0 01.888 2.57.304.304 0 00.088.21c.056.056.13.087.208.087l.012.016a.297.297 0 00.21-.089.305.305 0 00.087-.212c.027-1.192-.339-2.191-1.057-2.993-.721-.8-1.728-1.25-3.013-1.34h-.043zm.487 1.618c-.405-.012-.42.602-.02.614.977.05 1.451.55 1.514 1.578a.3.3 0 00.087.207.293.293 0 00.206.086h.012a.296.296 0 00.269-.202.308.308 0 00.016-.118c-.07-1.34-.791-2.095-2.072-2.164h-.012v-.001z" fill="#fff"/></svg>