<svg width="28" height="28" fill="none" xmlns="http://www.w3.org/2000/svg"><rect y=".913" width="28" height="26.783" rx="2" fill="#4ECB5C"/><path d="M2 25.783l1.695-5.893a10.923 10.923 0 01-1.592-5.687c0-6.275 5.36-11.377 11.947-11.377 3.195 0 6.196 1.184 8.447 3.334 2.257 2.15 3.5 5.01 3.494 8.049 0 6.275-5.36 11.377-11.947 11.377h-.006c-1.998 0-3.963-.48-5.71-1.386L2 25.783zm6.626-3.645l.361.207a10.332 10.332 0 005.051 1.32h.006c5.47 0 9.925-4.24 9.925-9.456 0-2.527-1.03-4.9-2.904-6.69-1.872-1.79-4.37-2.772-7.021-2.772-5.475 0-9.93 4.24-9.93 9.456 0 1.785.52 3.526 1.517 5.032l.235.36-1.002 3.487 3.762-.944z" fill="#000" fill-opacity=".24"/><path d="M2.542 25.174l1.618-5.62a10.456 10.456 0 01-1.522-5.422c0-5.982 5.113-10.848 11.386-10.848 3.048 0 5.905 1.132 8.054 3.18 2.149 2.047 3.331 4.774 3.331 7.674 0 5.981-5.113 10.848-11.385 10.848h-.006a11.84 11.84 0 01-5.441-1.32l-6.035 1.508z" fill="url(#paint0_linear)"/><path d="M2.129 25.567l1.674-5.82a10.785 10.785 0 01-1.572-5.615c0-6.197 5.294-11.236 11.798-11.236 3.156 0 6.12 1.17 8.343 3.293 2.228 2.123 3.455 4.947 3.45 7.948 0 6.198-5.294 11.237-11.799 11.237h-.005c-1.97-.001-3.909-.472-5.64-1.37l-6.25 1.564zm6.544-3.6l.356.206a10.202 10.202 0 004.989 1.304h.005c5.402 0 9.802-4.188 9.802-9.34 0-2.495-1.018-4.839-2.867-6.606-1.85-1.768-4.316-2.738-6.935-2.738-5.407 0-9.807 4.187-9.807 9.34 0 1.761.515 3.48 1.499 4.968l.232.355-.99 3.444 3.716-.932z" fill="#fff"/><path d="M11.077 9.428c-.221-.469-.453-.48-.662-.485-.17-.005-.368-.005-.566-.005-.198 0-.514.07-.786.35-.271.28-1.03.959-1.03 2.344 0 1.38 1.058 2.716 1.205 2.905.147.188 2.042 3.114 5.034 4.24 2.489.939 2.998.75 3.535.701.543-.048 1.742-.679 1.991-1.336.243-.657.243-1.218.17-1.337-.074-.118-.272-.188-.566-.328-.294-.14-1.742-.82-2.013-.916-.272-.097-.47-.14-.662.14-.198.28-.764.91-.933 1.1-.17.188-.345.21-.64.07-.293-.141-1.244-.437-2.37-1.397-.876-.743-1.47-1.665-1.64-1.945-.17-.28-.016-.431.13-.571.13-.124.295-.33.442-.49.147-.162.198-.28.294-.47.096-.188.05-.35-.023-.49-.073-.14-.65-1.525-.91-2.08z" fill="#fff"/><defs><linearGradient id="paint0_linear" x1="13.975" y1="25.173" x2="13.975" y2="3.283" gradientUnits="userSpaceOnUse"><stop stop-color="#20B038"/><stop offset="1" stop-color="#60D66A"/></linearGradient></defs></svg>