<svg width="28" height="28" fill="none" xmlns="http://www.w3.org/2000/svg"><path d="M25.298 0H2.702C1.21 0 0 .508 0 2v24c0 1.492 1.21 2 2.702 2h22.596C26.79 28 28 27.492 28 26V2c0-1.492-1.21-2-2.702-2z" fill="#ED2524"/><path fill-rule="evenodd" clip-rule="evenodd" d="M17.194 13.799l-5.155 2.785V10.992l2.326 1.265 2.83 1.542zm6.167-3.78s-.182-1.37-.757-1.973c-.724-.795-1.536-.8-1.912-.845-2.669-.199-6.675-.199-6.675-.199h-.011s-4.007 0-6.681.199c-.37.044-1.183.05-1.912.845-.57.603-.757 1.973-.757 1.973s-.194 1.614-.194 3.222v1.514c0 1.608.194 3.222.194 3.222s.188 1.37.757 1.972c.73.796 1.68.768 2.105.851 1.53.155 6.493.2 6.493.2s4.012-.006 6.681-.205c.376-.05 1.188-.05 1.912-.846.575-.602.757-1.973.757-1.973s.194-1.613.194-3.221V13.24c0-1.608-.194-3.222-.194-3.222z" fill="#FEFEFE"/></svg>