<svg version="1.0" xmlns="http://www.w3.org/2000/svg" width="400" height="361.333" viewBox="0 0 300 271"><path d="M152.8 9.1c-11.1 1.2-20.1 9.4-23.4 21.5-2.4 9.1-2 9.8 5.1 10.2l6 .3 1.3-5.3c1.2-5.4 4.8-10.6 9.5-14.2 3.8-2.8 12.5-2.8 16.3 0 5 3.7 6.8 7 6.7 12.2-.1 6.3-1.7 9.1-10.2 18.2-7.8 8.4-10.2 12.4-10.9 18.7-.5 4.7-.2 4.9 4.7 3.2 2.3-.8 3.1-1.7 3.1-3.5 0-3.9 2.8-8.3 10.3-16.4 8.6-9.2 11.7-15.3 11.7-23.4 0-15.1-11.8-23.5-30.2-21.5zm2.2 72.3c-2.9 1-3.6 1.8-3.8 4.4-.3 2.6 0 3.2 1.7 3.2 1.1 0 3.2-.5 4.6-1.2 1.9-.9 2.5-1.9 2.5-4.5 0-3.7 0-3.7-5-1.9zm-11.2 18.1c-4.9 3.6-6.2 6.2-7.5 15.5-.3 2.5-1.3 5.4-2.2 6.6-2.2 2.8-2 12.3.3 14 1 .7 1.6 2.6 1.6 5.1 0 3.8-.2 4.1-3.2 4.6-31.7 5.7-30.5 5.3-31.8 9-1.9 5.3-4 13.7-4 16 0 1.2-1.9 6-4.2 10.6l-4.2 8.3-2.1-2.4c-1.1-1.3-3.2-3.8-4.6-5.5-3.6-4.3-11.9-9.9-16.5-11.2-2.2-.6-5.8-1.1-8-1.1-2.3 0-6.2-.9-8.8-2.1-4.7-2-6.6-1.9-6.6.6 0 1.7 6.1 5.5 8.9 5.5 1.6 0 2.1.5 1.9 1.7-.3 1.5-1.6 1.8-7.3 2.1-6.6.2-7.3.1-11.9-3.3-4.5-3.1-5.2-3.4-6.5-2-1.4 1.3-1.1 1.9 2.3 5.4 3.5 3.6 5.2 4.6 12.6 8 1.4.7 5.4 1.5 9 1.9 4.8.6 6.4 1.1 6.2 2.2-.9 3.9 1.2 8.3 6.5 13.8 3 3.1 6.9 7.8 8.5 10.4 3.2 5.2 8.8 10.1 14.1 12.3 2.9 1.2 4.2 1.2 8.5.1 2.8-.8 6.4-2.3 8.1-3.5 1.6-1.2 3.2-2.1 3.5-2.1 1.9 0-2.6 23.3-6.4 33.1-1.3 3.1-2 7.4-2 11.4v6.5h105.6l.2-3c.1-1.7-1.1-8.8-2.7-15.8-2.9-12.6-5.5-40.4-3-32.2 2.5 8.3 3.9 9.6 13.4 12.5 3.6 1 4.8 1 7.2-.2 6.5-3.1 20.3-22.5 20.3-28.6 0-4.1 1.2-6.7 3.1-6.7 1 0 2.1-.5 2.4-1 .3-.6 3.4-1 6.9-1 5.3 0 6.9-.4 10.2-2.9 7.7-5.6 9.9-10 3.3-6.7-4 2-9.9 2.1-14.4.2-4.5-1.9-4.4-3.3.4-4.6 5.2-1.4 9-4.4 7.4-6-.9-.9-2.2-.9-6 .3-2.6.8-8 1.8-12 2.1-8.8.6-14.3 3.5-20.7 10.9l-4.4 5.1-2.1-3.4c-1.1-1.9-2.1-5.1-2.1-7.1s-.9-6.5-1.9-10c-1.1-3.5-2.3-8.5-2.6-11.1l-.7-4.8-5.7-1.5c-3.1-.9-9-2.7-13.1-4-4.1-1.4-9.6-2.8-12.3-3.1-2.6-.4-4.9-1-5.2-1.4-.9-1.4.8-4.8 2.6-5.3 1.2-.3 1.9-1.4 1.9-2.9 0-1.3.7-3.4 1.6-4.6 1.3-1.9 1.4-2.8.4-5.1-.9-2.3-.8-3.9.3-7.8 2.3-7.6.8-13.8-4.3-18.4-5.8-5.3-9.8-6.9-17.2-6.9-5.6 0-6.8.4-11 3.5zm-37.1 116.7c-.3.8-.6.5-.6-.6-.1-1.1.2-1.7.5-1.3.3.3.4 1.2.1 1.9z" class="node" fill="#040404"/></svg>