<svg height="511pt" viewBox="-59 0 511 511.864" width="511pt" xmlns="http://www.w3.org/2000/svg"><path d="M327.602 139.598l-24.989 48.793 29.57-147.227A34.073 34.073 0 00304.356.324c-18.332-2.496-35.46 9.645-39.175 27.77L249.46 97.21l-16.655 77.16-1.973-132.422c-.277-18.851-15.785-33.906-34.637-33.629-18.851.278-33.906 15.785-33.629 34.637v149.332l-12.8-26.937c-7.133-15.262-24.36-23.008-40.508-18.211l-45.903 13.5a25.89 25.89 0 00-13.582 9.89L27.45 202.31a32.18 32.18 0 00-4.719 27.937c.043.129.118.238.153.367-12.781 1.551-22.406 12.375-22.45 25.25v66.09a25.59 25.59 0 007.68 18.274l82.961 78.386a26.452 26.452 0 016.196 9.524 59.708 59.708 0 005.562 10.57v47.559c0 14.136 11.461 25.597 25.602 25.597h136.53c14.141 0 25.602-11.46 25.602-25.597v-46.73a93.385 93.385 0 0016-33.356 398.103 398.103 0 0010.079-59.164c1.152-9.684 2.328-19.496 3.855-29.414a159.77 159.77 0 0116.281-48.637l52.77-100.754a34.103 34.103 0 001.258-26.918 34.096 34.096 0 00-18.68-19.418c-17.195-6.812-36.719.957-44.527 17.723zM117.68 282.754l-18.075 26.871a28.323 28.323 0 01-6.824-3.645l-12.136-9.156a8.538 8.538 0 01-3.415-6.828v-8.531a50.722 50.722 0 00-10.484-30.969 32.697 32.697 0 009.879-6.707l19.703-20.394a5.808 5.808 0 015.41-1.243 5.795 5.795 0 013.977 3.871l12.726 50.73a8 8 0 01-.754 6zm247.78-145.16a17.006 17.006 0 019.388 9.793 16.666 16.666 0 01-.536 13.125l-52.667 100.55a176.8 176.8 0 00-18.008 53.922c-1.559 10.13-2.762 20.137-3.942 30.004a385.488 385.488 0 01-9.59 56.668c-5.265 19.133-16.855 41.942-42.207 41.942a8.533 8.533 0 00-8.53 8.535c0 4.71 3.82 8.531 8.53 8.531a52.358 52.358 0 0025.602-6.562v32.164c0 4.71-3.82 8.53-8.535 8.53H128.434a8.533 8.533 0 01-8.536-8.53V454.62a53.546 53.546 0 0025.602 6.043c4.71 0 8.531-3.82 8.531-8.531a8.533 8.533 0 00-8.531-8.535c-14.516.992-27.86-7.973-32.43-21.785a43.207 43.207 0 00-10.324-15.61l-82.773-78.215a8.461 8.461 0 01-2.473-6.035v-66.09a8.471 8.471 0 018.285-8.531 34.133 34.133 0 0134.38 34.133v8.531a25.718 25.718 0 0010.241 20.48l12.168 9.133a46.241 46.241 0 0018.696 8.063c.25.058.48.101.726.144a47.904 47.904 0 0030.25-4.582c2.73-1.363 4.524-4.078 4.707-7.12s-1.27-5.958-3.812-7.637a8.535 8.535 0 00-8.524-.516 33.72 33.72 0 01-4.547 1.793l11.946-17.727a25.228 25.228 0 002.996-19.465l-12.7-50.636a22.538 22.538 0 00-21.953-17.262 22.272 22.272 0 00-16.379 6.953l-19.546 20.207c-5.633 5.516-14.543 5.817-20.536.696-5.988-5.122-7.078-13.97-2.507-20.387L63.75 180.3a8.73 8.73 0 014.555-3.293l45.78-13.465c8.095-2.41 16.731 1.46 20.321 9.105l25.762 54.407a10.243 10.243 0 0011.477 5.547 10.247 10.247 0 007.988-9.934V42.805c-.16-9.426 7.355-17.196 16.781-17.352 9.426-.16 17.195 7.352 17.352 16.777l2.816 188.59a10.636 10.636 0 009.563 10.524 10.638 10.638 0 0011.488-8.383l28.484-132.004 15.727-69.117c1.683-9.313 10.32-15.711 19.722-14.61a16.97 16.97 0 0111.403 7.25 16.98 16.98 0 012.504 13.282L276.16 233.414a10.241 10.241 0 006.582 11.715 10.238 10.238 0 0012.516-4.89l47.61-93.012c3.878-8.598 13.702-12.786 22.593-9.633zm0 0"/><path d="M180.844 281.55a8.535 8.535 0 00-7.922 3.173 8.534 8.534 0 005.5 13.722c15.36 2.203 58.023 13.313 70.371 38.035 2.11 4.215 7.234 5.93 11.453 3.82a8.535 8.535 0 003.824-11.448c-18.851-37.704-80.617-46.926-83.226-47.301zm0 0M174.273 316.21a8.54 8.54 0 00-8.566 1.11 8.534 8.534 0 002.219 14.73c.375.153 37.304 15.548 37.304 68.88a8.534 8.534 0 1017.067 0c0-64.758-46.078-83.934-48.024-84.72zm0 0"/></svg>