<svg width="18" height="24" viewBox="0 0 18 24" fill="none" xmlns="http://www.w3.org/2000/svg">
<path d="M8.82755 0C13.6888 0 17.646 4.31698 17.646 9.62013C17.646 10.2239 17.5953 10.8327 17.4892 11.4264C17.4846 11.4616 17.4661 11.5673 17.4292 11.7484C17.2955 12.3975 17.0971 13.0365 16.8389 13.6453C15.8888 16.0855 13.7995 19.834 9.21497 23.8491C9.09966 23.9497 8.9613 24 8.82294 24C8.68457 24 8.54621 23.9497 8.4309 23.8491C3.85103 19.834 1.75711 16.0855 0.807003 13.6453C0.548723 13.0365 0.350399 12.4025 0.216646 11.7484C0.179749 11.5673 0.161301 11.4616 0.156689 11.4264C0.0552216 10.8327 -0.000123978 10.2239 -0.000123978 9.62013C0.00909996 4.31698 3.96633 0 8.82755 0ZM1.39275 11.1899C1.39275 11.2 1.39736 11.2101 1.39736 11.2201C1.40197 11.2453 1.41581 11.3208 1.43887 11.4365C1.43887 11.4415 1.43887 11.4415 1.43887 11.4465C1.55417 12.0101 1.72482 12.5585 1.95082 13.0868C1.95543 13.0918 1.95543 13.1019 1.96004 13.1069C2.82252 15.3358 4.7135 18.7371 8.82755 22.4453C12.9416 18.7371 14.8326 15.3358 15.6951 13.1069C15.6997 13.1019 15.6997 13.0918 15.7043 13.0868C15.9257 12.5635 16.0963 12.0101 16.2162 11.4465C16.2162 11.4415 16.2162 11.4415 16.2162 11.4365C16.2439 11.3208 16.2531 11.2453 16.2577 11.2201C16.2577 11.2101 16.2623 11.2 16.2623 11.1849C16.3546 10.6667 16.4007 10.1434 16.4007 9.61509C16.4007 5.06164 13.0016 1.35346 8.82755 1.35346C4.65354 1.35346 1.25438 5.06164 1.25438 9.61509C1.25438 10.1484 1.3005 10.6767 1.39275 11.1899Z" fill="#268DA6"/>
<path d="M8.8276 3.61768C11.9131 3.61768 14.4268 6.35981 14.4268 9.72585C14.4268 13.0919 11.9131 15.834 8.8276 15.834C5.74206 15.834 3.22844 13.0919 3.22844 9.72585C3.22844 6.35981 5.74206 3.61768 8.8276 3.61768ZM8.8276 14.4755C11.2305 14.4755 13.1815 12.3422 13.1815 9.72585C13.1815 7.1095 11.2259 4.97617 8.8276 4.97617C6.42927 4.97617 4.47372 7.1095 4.47372 9.72585C4.47372 12.3422 6.42466 14.4755 8.8276 14.4755Z" fill="#268DA6"/>
</svg>
