<svg viewBox="0 0 24 25" fill="none" xmlns="http://www.w3.org/2000/svg">
<path d="M23.6322 22.132L18.1915 16.6913C19.5014 14.9475 20.2085 12.825 20.2061 10.6441C20.2061 5.07327 15.6738 0.541016 10.103 0.541016C4.53226 0.541016 0 5.07327 0 10.6441C0 16.2148 4.53226 20.7471 10.103 20.7471C12.284 20.7495 14.4065 20.0424 16.1503 18.7325L21.591 24.1732C21.8664 24.4194 22.2256 24.5508 22.5948 24.5404C22.9641 24.5301 23.3154 24.3788 23.5766 24.1176C23.8378 23.8564 23.9891 23.5051 23.9994 23.1359C24.0098 22.7666 23.8783 22.4074 23.6322 22.132ZM2.88658 10.6441C2.88658 9.21677 3.30982 7.82155 4.10277 6.63481C4.89573 5.44807 6.02279 4.52312 7.34142 3.97692C8.66006 3.43072 10.111 3.28781 11.5109 3.56626C12.9108 3.84471 14.1966 4.53201 15.2058 5.54125C16.2151 6.55049 16.9024 7.83634 17.1808 9.23619C17.4593 10.636 17.3164 12.087 16.7702 13.4057C16.224 14.7243 15.299 15.8514 14.1123 16.6443C12.9255 17.4373 11.5303 17.8605 10.103 17.8605C8.18982 17.8582 6.35562 17.0972 5.00277 15.7443C3.64992 14.3915 2.88888 12.5573 2.88658 10.6441Z" fill="#268DA6"/>
</svg>
