<svg width="28" height="28" viewBox="0 0 28 28" fill="none" xmlns="http://www.w3.org/2000/svg">
<g clip-path="url(#clip0)">
<path d="M4.9 28.0004L22.5 28.0004C25.2062 28.0004 28 28.7067 28 26.0005L28 2.50049C28 -0.205708 25.7062 0.000423431 23 0.000423431L4.9 0.000423431C2.1938 0.000423431 0 -0.205708 0 2.50049L0 26.0005C0 28.7067 2.1938 28.0004 4.9 28.0004Z" fill="url(#paint0_radial)"/>
<path d="M19.25 24.5H8.75C7.35761 24.5 6.02226 23.9469 5.03769 22.9623C4.05312 21.9777 3.5 20.6424 3.5 19.25V8.75C3.5 7.35761 4.05312 6.02226 5.03769 5.03769C6.02226 4.05312 7.35761 3.5 8.75 3.5H19.25C20.6424 3.5 21.9777 4.05312 22.9623 5.03769C23.9469 6.02226 24.5 7.35761 24.5 8.75V19.25C24.5 20.6424 23.9469 21.9777 22.9623 22.9623C21.9777 23.9469 20.6424 24.5 19.25 24.5ZM8.75 5.6C7.91492 5.60116 7.11438 5.9334 6.52389 6.52389C5.9334 7.11438 5.60116 7.91492 5.6 8.75V19.25C5.60116 20.0851 5.9334 20.8856 6.52389 21.4761C7.11438 22.0666 7.91492 22.3988 8.75 22.4H19.25C20.0851 22.3988 20.8856 22.0666 21.4761 21.4761C22.0666 20.8856 22.3988 20.0851 22.4 19.25V8.75C22.3988 7.91492 22.0666 7.11438 21.4761 6.52389C20.8856 5.9334 20.0851 5.60116 19.25 5.6H8.75Z" fill="white"/>
<path d="M13.9998 19.9503C12.823 19.9503 11.6726 19.6013 10.6942 18.9475C9.71569 18.2937 8.95307 17.3645 8.50272 16.2773C8.05238 15.19 7.93455 13.9937 8.16413 12.8395C8.39372 11.6853 8.9604 10.6251 9.79252 9.79301C10.6246 8.96089 11.6848 8.39421 12.839 8.16462C13.9932 7.93504 15.1896 8.05287 16.2768 8.50321C17.364 8.95355 18.2933 9.71618 18.9471 10.6947C19.6008 11.6731 19.9498 12.8235 19.9498 14.0003C19.9486 15.578 19.3214 17.0907 18.2058 18.2063C17.0902 19.3219 15.5775 19.9491 13.9998 19.9503ZM13.9998 10.1503C13.2383 10.1503 12.494 10.3761 11.8609 10.7991C11.2277 11.2222 10.7343 11.8235 10.4429 12.527C10.1515 13.2305 10.0752 14.0046 10.2238 14.7514C10.3723 15.4982 10.739 16.1842 11.2774 16.7227C11.8159 17.2611 12.5019 17.6278 13.2487 17.7763C13.9955 17.9249 14.7696 17.8486 15.4731 17.5572C16.1766 17.2658 16.7779 16.7724 17.201 16.1392C17.624 15.5061 17.8498 14.7618 17.8498 14.0003C17.8486 12.9796 17.4427 12.001 16.7209 11.2792C15.9991 10.5574 15.0205 10.1515 13.9998 10.1503Z" fill="white"/>
<path d="M19.9499 9.4501C20.5298 9.4501 20.9999 8.98 20.9999 8.4001C20.9999 7.8202 20.5298 7.3501 19.9499 7.3501C19.37 7.3501 18.8999 7.8202 18.8999 8.4001C18.8999 8.98 19.37 9.4501 19.9499 9.4501Z" fill="white"/>
</g>
<defs>
<radialGradient id="paint0_radial" cx="0" cy="0" r="1" gradientUnits="userSpaceOnUse" gradientTransform="translate(-0.56328 27.4317) rotate(180) scale(64.6603)">
<stop stop-color="#F9ED32"/>
<stop offset="0.36" stop-color="#EE2A7B"/>
<stop offset="0.44" stop-color="#D22A8A"/>
<stop offset="0.6" stop-color="#8B2AB2"/>
<stop offset="0.83" stop-color="#1B2AF0"/>
<stop offset="0.88" stop-color="#002AFF"/>
</radialGradient>
<clipPath id="clip0">
<rect width="28" height="28" fill="white"/>
</clipPath>
</defs>
</svg>
