<svg width="90" height="28" viewBox="0 0 90 28" fill="none" xmlns="http://www.w3.org/2000/svg">
<g clip-path="url(#clip0)">
<path fill-rule="evenodd" clip-rule="evenodd" d="M11.7716 0.11084H14.1676C14.3669 0.11084 14.5662 0.298851 14.5662 0.488378V2.81274C14.5662 3.00075 14.3669 3.1266 14.1676 3.1266H11.7716C11.5048 3.1266 11.3731 3.00075 11.3731 2.81274V0.488378C11.3715 0.298851 11.5048 0.11084 11.7716 0.11084Z" fill="white"/>
<path fill-rule="evenodd" clip-rule="evenodd" d="M7.97862 0.11084H10.3747C10.6414 0.11084 10.7732 0.298851 10.7732 0.488378V2.81274C10.7732 3.00075 10.6398 3.1266 10.3747 3.1266H7.97862C7.77936 3.1266 7.58009 3.00075 7.58009 2.81274V0.488378C7.57848 0.298851 7.77775 0.11084 7.97862 0.11084Z" fill="white"/>
<path fill-rule="evenodd" clip-rule="evenodd" d="M4.25207 0.11084H6.6481C6.84737 0.11084 7.04664 0.298851 7.04664 0.488378V2.81274C7.04664 3.00075 6.84737 3.1266 6.6481 3.1266H4.25207C3.9853 3.1266 3.85353 3.00075 3.85353 2.81274V0.488378C3.85192 0.298851 3.9853 0.11084 4.25207 0.11084Z" fill="white"/>
<path fill-rule="evenodd" clip-rule="evenodd" d="M0.92316 3.69189H6.11377C6.69068 3.69189 6.97834 4.09976 6.97834 4.50914V9.40804C6.97834 9.8159 6.69068 10.2253 6.11377 10.2253H0.92316C0.490877 10.2253 0.0585938 9.81742 0.0585938 9.40804V4.50762C0.0585937 4.09976 0.490877 3.69189 0.92316 3.69189Z" fill="white"/>
<path fill-rule="evenodd" clip-rule="evenodd" d="M4.25207 10.7896H6.6481C6.84737 10.7896 7.04664 10.9776 7.04664 11.1671V13.4278C7.04664 13.6158 6.84737 13.8053 6.6481 13.8053H4.25207C3.9853 13.8053 3.85353 13.6173 3.85353 13.4278V11.1671C3.85192 10.9776 3.9853 10.7896 4.25207 10.7896Z" fill="white"/>
<path fill-rule="evenodd" clip-rule="evenodd" d="M15.4982 14.3071H17.8942C18.161 14.3071 18.2927 14.4951 18.2927 14.6847V17.009C18.2927 17.197 18.1593 17.3229 17.8942 17.3229H15.4982C15.2989 17.3229 15.0996 17.197 15.0996 17.009V14.6847C15.098 14.4951 15.2973 14.3071 15.4982 14.3071Z" fill="white"/>
<path fill-rule="evenodd" clip-rule="evenodd" d="M15.4982 24.9858H17.8942C18.161 24.9858 18.2927 25.1739 18.2927 25.3634V27.6241C18.2927 27.8121 18.1593 28.0016 17.8942 28.0016H15.4982C15.2989 28.0016 15.0996 27.8136 15.0996 27.6241V25.3634C15.098 25.1739 15.2973 24.9858 15.4982 24.9858Z" fill="white"/>
<path fill-rule="evenodd" clip-rule="evenodd" d="M11.7716 24.9858H14.1676C14.3669 24.9858 14.5662 25.1739 14.5662 25.3634V27.6241C14.5662 27.8121 14.3669 28.0016 14.1676 28.0016H11.7716C11.5048 28.0016 11.3731 27.8136 11.3731 27.6241V25.3634C11.3715 25.1739 11.5048 24.9858 11.7716 24.9858Z" fill="white"/>
<path fill-rule="evenodd" clip-rule="evenodd" d="M7.97862 24.9858H10.3747C10.6414 24.9858 10.7732 25.1739 10.7732 25.3634V27.6241C10.7732 27.8121 10.6398 28.0016 10.3747 28.0016H7.97862C7.77936 28.0016 7.58009 27.8136 7.58009 27.6241V25.3634C7.57848 25.1739 7.77775 24.9858 7.97862 24.9858Z" fill="white"/>
<path fill-rule="evenodd" clip-rule="evenodd" d="M8.45734 10.7104H13.6479C14.2249 10.7104 14.5125 11.1183 14.5125 11.5277V16.4266C14.5125 16.8345 14.2249 17.2438 13.6479 17.2438H8.45734C8.02506 17.2438 7.59277 16.836 7.59277 16.4266V11.5262C7.59277 11.1183 8.02506 10.7104 8.45734 10.7104Z" fill="white"/>
<path fill-rule="evenodd" clip-rule="evenodd" d="M15.972 0H21.1626C21.7395 0 22.0272 0.407863 22.0272 0.817241V5.71614C22.0272 6.124 21.7395 6.53338 21.1626 6.53338H15.972C15.5397 6.53338 15.1074 6.12552 15.1074 5.71614V0.817241C15.1058 0.407863 15.5397 0 15.972 0Z" fill="white"/>
<path fill-rule="evenodd" clip-rule="evenodd" d="M0.864566 21.4043H6.05517C6.63209 21.4043 6.91974 21.8122 6.91974 22.2215V27.1204C6.91974 27.5283 6.63209 27.9377 6.05517 27.9377H0.864566C0.432283 27.9377 0 27.5298 0 27.1204V22.2215C0 21.8137 0.432283 21.4043 0.864566 21.4043Z" fill="white"/>
<path fill-rule="evenodd" clip-rule="evenodd" d="M15.9027 17.9443H21.0933C21.6702 17.9443 21.9578 18.3522 21.9578 18.7616V23.6605C21.9578 24.0683 21.6702 24.4777 21.0933 24.4777H15.9027C15.4704 24.4777 15.0381 24.0699 15.0381 23.6605V18.7616C15.0381 18.3522 15.4704 17.9443 15.9027 17.9443Z" fill="white"/>
<path d="M23.3981 21.2754H23.742V23.668L25.5643 21.2754H25.8922V24.1577H25.5515V21.7651L23.7323 24.1577H23.3965V21.2754H23.3981Z" fill="white"/>
<path d="M27.6758 23.7408L27.8815 23.5149C28.1916 23.7908 28.5146 23.9273 28.9549 23.9273C29.3294 23.9273 29.6652 23.7135 29.6652 23.3708C29.6652 22.9963 29.3069 22.8402 28.8409 22.8402H28.505V22.5733H28.8409C29.2764 22.5733 29.5865 22.3716 29.5865 22.0305C29.5865 21.7348 29.2988 21.5165 28.8971 21.5165C28.5532 21.5165 28.2639 21.615 27.9988 21.841L27.7979 21.615C28.1032 21.3679 28.4214 21.2314 28.9051 21.2314C29.511 21.2314 29.9352 21.5559 29.9352 22.0017C29.9352 22.3883 29.6556 22.5869 29.3776 22.6809C29.7392 22.7841 30.0188 23.0054 30.0188 23.389C30.0188 23.8454 29.5865 24.2078 28.9501 24.2078C28.4214 24.2063 28.0341 24.0501 27.6758 23.7408Z" fill="white"/>
<path d="M31.4894 23.8605H31.8028C32.0952 23.4193 32.2656 22.7112 32.2656 21.7773V21.2754H34.2631V23.8605H34.66L34.607 24.7991H34.3193V24.1562H31.8413L31.7803 24.7991H31.4878V23.8605H31.4894ZM33.9192 23.8605V21.5711H32.5982V21.9456C32.5982 22.6915 32.4456 23.4648 32.1933 23.8605H33.9192Z" fill="white"/>
<path d="M37.4639 21.2544H37.7869L39.1786 24.1564H38.8074L38.449 23.3953H36.7874L36.4258 24.1564H36.0723L37.4639 21.2544ZM38.314 23.1042L37.6198 21.635L36.9224 23.1042H38.314Z" fill="white"/>
<path d="M41.7596 21.5711H40.7344V21.2754H43.1336V21.5711H42.1084V24.1562H41.7596V21.5711Z" fill="white"/>
<path d="M44.9464 21.2754H47.1528V21.5711H45.2903V22.5551H46.9568V22.8507H45.2903V23.859H47.1737V24.1547H44.9448V21.2754H44.9464Z" fill="white"/>
<path d="M48.5957 24.1199L48.6648 23.856C48.713 23.8773 48.84 23.897 48.9348 23.897C49.171 23.897 49.5679 23.7605 49.5679 21.797V21.2739H51.5429V24.1563H51.199V21.5711H49.899V21.8834C49.899 23.9046 49.4635 24.1896 48.991 24.1896C48.8576 24.1896 48.6744 24.1487 48.5957 24.1199Z" fill="white"/>
<path d="M53.5739 21.2754H53.9178V22.3913H54.6891C55.3432 22.3913 55.8751 22.6385 55.8751 23.2389C55.8751 23.8029 55.4348 24.1577 54.7406 24.1577H53.5723V21.2754H53.5739ZM54.7341 23.8605C55.2227 23.8605 55.5328 23.6543 55.5328 23.2465C55.5328 22.872 55.2194 22.6824 54.7132 22.6824H53.9194V23.8605H54.7341Z" fill="white"/>
<path d="M57.542 22.716C57.542 21.9003 58.188 21.2256 59.0863 21.2256C59.6407 21.2256 59.9621 21.4197 60.2691 21.6911L60.0425 21.9215C59.7854 21.6911 59.4977 21.5258 59.0831 21.5258C58.4066 21.5258 57.9003 22.0443 57.9003 22.716C57.9003 23.3832 58.4114 23.9063 59.0831 23.9063C59.5025 23.9063 59.7773 23.7546 60.0682 23.4908L60.2948 23.7167C59.9766 24.0215 59.6279 24.2065 59.0735 24.2065C58.1928 24.2065 57.542 23.553 57.542 22.716Z" fill="white"/>
<path d="M62.0684 21.2754H62.4123V22.9963L64.1655 21.2754H64.6106L63.3025 22.5354L64.6669 24.1577H64.2346L63.0615 22.7613L62.4123 23.3829V24.1562H62.0684V21.2754Z" fill="white"/>
<path d="M66.3737 21.2754H66.7176V23.668L68.5399 21.2754H68.8677V24.1577H68.5271V21.7651L66.7079 24.1577H66.3721V21.2754H66.3737Z" fill="white"/>
<path d="M70.9122 21.2754H71.2562V23.6679L73.0785 21.2754H73.4063V24.1577H73.0656V21.7651L71.2465 24.1577H70.9106V21.2754H70.9122ZM71.5583 20.5294L71.7945 20.4839C71.8475 20.6613 71.9697 20.772 72.1834 20.772C72.3971 20.772 72.5193 20.6613 72.5723 20.4839L72.8085 20.5294C72.7555 20.822 72.516 21.0358 72.185 21.0358C71.8507 21.0358 71.6097 20.822 71.5583 20.5294Z" fill="white"/>
<path d="M77.356 23.8605H77.6693C77.9618 23.4193 78.1321 22.7112 78.1321 21.7773V21.2754H80.1296V23.8605H80.5266L80.4751 24.7991H80.1875V24.1562H77.7095L77.6484 24.7991H77.356V23.8605ZM79.7857 23.8605V21.5711H78.4648V21.9456C78.4648 22.6915 78.3121 23.4648 78.0598 23.8605H79.7857Z" fill="white"/>
<path d="M82.0659 22.716C82.0659 21.9215 82.6991 21.2256 83.6279 21.2256C84.5568 21.2256 85.1803 21.9124 85.1803 22.716C85.1803 23.5105 84.5471 24.2065 83.6183 24.2065C82.6894 24.2065 82.0659 23.5196 82.0659 22.716ZM84.8219 22.716C84.8219 22.061 84.3157 21.5258 83.6183 21.5258C82.9208 21.5258 82.4227 22.0534 82.4227 22.716C82.4227 23.371 82.9289 23.9063 83.6263 23.9063C84.3254 23.9063 84.8219 23.3786 84.8219 22.716Z" fill="white"/>
<path d="M87.0781 21.2754H87.4268L88.5389 22.8477L89.6509 21.2754H89.9996V24.1577H89.6557V21.8227L88.5437 23.3663H88.526L87.414 21.8258V24.1562H87.0781V21.2754Z" fill="white"/>
<path d="M33.7737 18.8284C32.9622 18.2886 32.2792 17.6124 31.757 16.8255H26.756V13.7931H30.6433C30.6031 13.4777 30.5806 13.1547 30.5806 12.8242C30.5806 12.4603 30.6079 12.1055 30.6578 11.7583H26.756V8.82442H31.7843C32.3612 7.96624 33.1293 7.23694 34.0389 6.67139H23.8071V18.8284H33.7737Z" fill="white"/>
<path d="M70.8597 18.8284C70.0482 18.2886 69.3652 17.6124 68.8429 16.8255H63.8419V13.7931H67.7293C67.6891 13.4777 67.6666 13.1547 67.6666 12.8242C67.6666 12.4603 67.6939 12.1055 67.7437 11.7583H63.8419V8.82442H68.8702C69.4471 7.96624 70.2153 7.23694 71.1248 6.67139H60.8931V18.8284H70.8597Z" fill="white"/>
<path d="M36.0892 18.8284H42.0801C43.1728 18.4675 44.0438 17.9581 44.6914 17.4774V12.0994H39.1007V13.9234H41.9065V16.2478L41.6912 16.3812C41.005 16.8057 40.1758 17.0119 39.1521 17.0119C36.6371 17.0119 34.8116 15.2562 34.8116 12.8393C34.8116 10.4998 36.6195 8.66668 38.9271 8.66668C40.1902 8.66668 41.2203 8.9957 42.2938 9.75684L44.0052 7.81456C43.3142 7.30511 42.5943 6.92909 41.8133 6.67285H36.2643C33.5517 7.59016 31.7197 9.91453 31.7197 12.7832C31.7213 15.6246 33.4473 17.8807 36.0892 18.8284Z" fill="white"/>
<path d="M56.4305 6.67139L52.8421 12.1677L49.2537 6.67139H45.7568V18.839H48.6655V10.3528L52.8003 16.3191L56.9576 10.3133V18.839H59.9274V6.67139H56.4305Z" fill="white"/>
<path d="M81.6714 8.91853H81.7052V8.93369H83.3138V18.827H86.5406V8.93369H90.571V6.66846H79.1597C80.1753 7.2522 81.0302 8.01638 81.6714 8.91853Z" fill="white"/>
<path d="M72.1697 18.5587V10.4773L79.0204 18.8286H81.704V8.92768H79.0429L78.9946 14.8197L72.5232 6.92627C71.2457 7.47817 70.1883 8.36516 69.4828 9.49626L69.4619 9.52962V16.1631C70.0935 17.1865 71.0287 18.0068 72.1697 18.5587Z" fill="white"/>
</g>
<defs>
<clipPath id="clip0">
<rect width="90" height="28" fill="white"/>
</clipPath>
</defs>
</svg>
