<svg width="147" height="48" viewBox="0 0 147 48" fill="none" xmlns="http://www.w3.org/2000/svg">
<g clip-path="url(#clip0)">
<path fill-rule="evenodd" clip-rule="evenodd" d="M19.2262 0.189941H23.1397C23.4652 0.189941 23.7906 0.512246 23.7906 0.83715V4.82177C23.7906 5.14408 23.4652 5.35981 23.1397 5.35981H19.2262C18.7905 5.35981 18.5752 5.14408 18.5752 4.82177V0.83715C18.5726 0.512246 18.7905 0.189941 19.2262 0.189941Z" fill="#268DA6"/>
<path fill-rule="evenodd" clip-rule="evenodd" d="M13.0318 0.189941H16.9453C17.3811 0.189941 17.5963 0.512246 17.5963 0.83715V4.82177C17.5963 5.14408 17.3784 5.35981 16.9453 5.35981H13.0318C12.7063 5.35981 12.3809 5.14408 12.3809 4.82177V0.83715C12.3783 0.512246 12.7037 0.189941 13.0318 0.189941Z" fill="#268DA6"/>
<path fill-rule="evenodd" clip-rule="evenodd" d="M6.94491 0.189941H10.8584C11.1839 0.189941 11.5094 0.512246 11.5094 0.83715V4.82177C11.5094 5.14408 11.1839 5.35981 10.8584 5.35981H6.94491C6.5092 5.35981 6.29397 5.14408 6.29397 4.82177V0.83715C6.29134 0.512246 6.5092 0.189941 6.94491 0.189941Z" fill="#268DA6"/>
<path fill-rule="evenodd" clip-rule="evenodd" d="M1.50929 6.3291H9.98729C10.9296 6.3291 11.3994 7.02829 11.3994 7.73009V16.1282C11.3994 16.8274 10.9296 17.5292 9.98729 17.5292H1.50929C0.80323 17.5292 0.097168 16.83 0.097168 16.1282V7.72749C0.097168 7.02829 0.80323 6.3291 1.50929 6.3291Z" fill="#268DA6"/>
<path fill-rule="evenodd" clip-rule="evenodd" d="M6.94491 18.4961H10.8584C11.1839 18.4961 11.5094 18.8184 11.5094 19.1433V23.0188C11.5094 23.3411 11.1839 23.666 10.8584 23.666H6.94491C6.5092 23.666 6.29397 23.3437 6.29397 23.0188V19.1433C6.29134 18.8184 6.5092 18.4961 6.94491 18.4961Z" fill="#5B6164"/>
<path fill-rule="evenodd" clip-rule="evenodd" d="M25.3131 24.5264H29.2266C29.6623 24.5264 29.8775 24.8487 29.8775 25.1736V29.1582C29.8775 29.4805 29.6597 29.6962 29.2266 29.6962H25.3131C24.9876 29.6962 24.6621 29.4805 24.6621 29.1582V25.1736C24.6595 24.8487 24.985 24.5264 25.3131 24.5264Z" fill="#5B6164"/>
<path fill-rule="evenodd" clip-rule="evenodd" d="M25.3131 42.8325H29.2266C29.6623 42.8325 29.8775 43.1548 29.8775 43.4797V47.3552C29.8775 47.6775 29.6597 48.0024 29.2266 48.0024H25.3131C24.9876 48.0024 24.6621 47.6801 24.6621 47.3552V43.4797C24.6595 43.1548 24.985 42.8325 25.3131 42.8325Z" fill="#268DA6"/>
<path fill-rule="evenodd" clip-rule="evenodd" d="M19.2262 42.8325H23.1397C23.4652 42.8325 23.7906 43.1548 23.7906 43.4797V47.3552C23.7906 47.6775 23.4652 48.0024 23.1397 48.0024H19.2262C18.7905 48.0024 18.5752 47.6801 18.5752 47.3552V43.4797C18.5726 43.1548 18.7905 42.8325 19.2262 42.8325Z" fill="#268DA6"/>
<path fill-rule="evenodd" clip-rule="evenodd" d="M13.0318 42.8325H16.9453C17.3811 42.8325 17.5963 43.1548 17.5963 43.4797V47.3552C17.5963 47.6775 17.3784 48.0024 16.9453 48.0024H13.0318C12.7063 48.0024 12.3809 47.6801 12.3809 47.3552V43.4797C12.3783 43.1548 12.7037 42.8325 13.0318 42.8325Z" fill="#268DA6"/>
<path fill-rule="evenodd" clip-rule="evenodd" d="M13.814 18.3608H22.292C23.2343 18.3608 23.7041 19.06 23.7041 19.7618V28.1599C23.7041 28.8591 23.2343 29.5609 22.292 29.5609H13.814C13.1079 29.5609 12.4019 28.8617 12.4019 28.1599V19.7592C12.4019 19.06 13.1079 18.3608 13.814 18.3608Z" fill="#5B6164"/>
<path fill-rule="evenodd" clip-rule="evenodd" d="M26.0879 0H34.5659C35.5082 0 35.978 0.699193 35.978 1.40099V9.7991C35.978 10.4983 35.5082 11.2001 34.5659 11.2001H26.0879C25.3819 11.2001 24.6758 10.5009 24.6758 9.7991V1.40099C24.6732 0.699193 25.3819 0 26.0879 0Z" fill="#268DA6"/>
<path fill-rule="evenodd" clip-rule="evenodd" d="M1.41212 36.6934H9.89012C10.8324 36.6934 11.3022 37.3926 11.3022 38.0943V46.4925C11.3022 47.1917 10.8324 47.8934 9.89012 47.8934H1.41212C0.706062 47.8934 0 47.1943 0 46.4925V38.0943C0 37.3952 0.706062 36.6934 1.41212 36.6934Z" fill="#268DA6"/>
<path fill-rule="evenodd" clip-rule="evenodd" d="M25.9746 30.7617H34.4526C35.3949 30.7617 35.8647 31.4609 35.8647 32.1627V40.5608C35.8647 41.26 35.3949 41.9618 34.4526 41.9618H25.9746C25.2686 41.9618 24.5625 41.2626 24.5625 40.5608V32.1627C24.5625 31.4609 25.2686 30.7617 25.9746 30.7617Z" fill="#268DA6"/>
<path d="M38.2165 36.4727H38.7782V40.5742L41.7547 36.4727H42.2901V41.4138H41.7337V37.3122L38.7624 41.4138H38.2139V36.4727H38.2165Z" fill="#268DA6"/>
<path d="M45.2036 40.6987L45.5396 40.3114C46.0462 40.7845 46.5737 41.0184 47.2929 41.0184C47.9045 41.0184 48.4531 40.6519 48.4531 40.0645C48.4531 39.4225 47.8677 39.1548 47.1066 39.1548H46.558V38.6973H47.1066C47.8179 38.6973 48.3245 38.3516 48.3245 37.7668C48.3245 37.2599 47.8546 36.8856 47.1984 36.8856C46.6367 36.8856 46.1643 37.0546 45.7312 37.4419L45.4031 37.0546C45.9018 36.6309 46.4215 36.397 47.2116 36.397C48.2011 36.397 48.894 36.9532 48.894 37.7174C48.894 38.3802 48.4373 38.7207 47.9832 38.8818C48.5738 39.0586 49.0305 39.4381 49.0305 40.0957C49.0305 40.878 48.3245 41.4993 47.285 41.4993C46.4215 41.4967 45.7889 41.2289 45.2036 40.6987Z" fill="#268DA6"/>
<path d="M51.4323 40.9043H51.9441C52.4218 40.148 52.7001 38.9341 52.7001 37.333V36.4727H55.9627V40.9043H56.611L56.5244 42.5133H56.0545V41.4112H52.0071L51.9074 42.5133H51.4297V40.9043H51.4323ZM55.401 40.9043V36.9795H53.2434V37.6215C53.2434 38.9003 52.994 40.2259 52.582 40.9043H55.401Z" fill="#268DA6"/>
<path d="M61.191 36.436H61.7186L63.9916 41.411H63.3853L62.8 40.1062H60.086L59.4954 41.411H58.918L61.191 36.436ZM62.5795 39.6071L61.4456 37.0884L60.3065 39.6071H62.5795Z" fill="#268DA6"/>
<path d="M68.2073 36.9795H66.5327V36.4727H70.4515V36.9795H68.7769V41.4112H68.2073V36.9795Z" fill="#268DA6"/>
<path d="M73.4118 36.4727H77.0156V36.9795H73.9735V38.6664H76.6954V39.1733H73.9735V40.9017H77.0497V41.4086H73.4092V36.4727H73.4118Z" fill="#268DA6"/>
<path d="M79.373 41.3485L79.4859 40.8962C79.5647 40.9326 79.772 40.9664 79.9269 40.9664C80.3127 40.9664 80.961 40.7325 80.961 37.3665V36.4697H84.1869V41.4109H83.6252V36.9792H81.5017V37.5146C81.5017 40.9794 80.7904 41.468 80.0187 41.468C79.8009 41.468 79.5017 41.3979 79.373 41.3485Z" fill="#268DA6"/>
<path d="M87.5046 36.4727H88.0663V38.3857H89.3262C90.3944 38.3857 91.2632 38.8094 91.2632 39.8387C91.2632 40.8056 90.5441 41.4138 89.4102 41.4138H87.502V36.4727H87.5046ZM89.3997 40.9043C90.1976 40.9043 90.7042 40.5508 90.7042 39.8517C90.7042 39.2096 90.1923 38.8847 89.3655 38.8847H88.0689V40.9043H89.3997Z" fill="#268DA6"/>
<path d="M93.9854 38.9418C93.9854 37.5434 95.0405 36.3867 96.5077 36.3867C97.4133 36.3867 97.9382 36.7194 98.4396 37.1847L98.0695 37.5798C97.6495 37.1847 97.1797 36.9014 96.5025 36.9014C95.3975 36.9014 94.5707 37.7903 94.5707 38.9418C94.5707 40.0854 95.4053 40.9822 96.5025 40.9822C97.1876 40.9822 97.6364 40.7222 98.1115 40.27L98.4816 40.6573C97.9619 41.1797 97.3923 41.4968 96.4868 41.4968C95.0484 41.4968 93.9854 40.3765 93.9854 38.9418Z" fill="#268DA6"/>
<path d="M101.379 36.4727H101.941V39.4228L104.804 36.4727H105.531L103.395 38.6326L105.623 41.4138H104.917L103.001 39.0199L101.941 40.0856V41.4112H101.379V36.4727Z" fill="#268DA6"/>
<path d="M108.411 36.4727H108.973V40.5742L111.949 36.4727H112.484V41.4138H111.928V37.3122L108.957 41.4138H108.408V36.4727H108.411Z" fill="#268DA6"/>
<path d="M115.823 36.4725H116.385V40.5741L119.362 36.4725H119.897V41.4137H119.341V37.3121L116.369 41.4137H115.821V36.4725H115.823ZM116.879 35.1937L117.264 35.1157C117.351 35.4198 117.551 35.6096 117.9 35.6096C118.249 35.6096 118.448 35.4198 118.535 35.1157L118.921 35.1937C118.834 35.6953 118.443 36.0618 117.902 36.0618C117.356 36.0618 116.963 35.6953 116.879 35.1937Z" fill="#268DA6"/>
<path d="M126.348 40.9043H126.86C127.338 40.148 127.616 38.9341 127.616 37.333V36.4727H130.878V40.9043H131.527L131.443 42.5133H130.973V41.4112H126.926L126.826 42.5133H126.348V40.9043ZM130.317 40.9043V36.9795H128.159V37.6215C128.159 38.9003 127.91 40.2259 127.498 40.9043H130.317Z" fill="#268DA6"/>
<path d="M134.042 38.9418C134.042 37.5798 135.076 36.3867 136.593 36.3867C138.11 36.3867 139.128 37.5642 139.128 38.9418C139.128 40.3038 138.094 41.4968 136.577 41.4968C135.06 41.4968 134.042 40.3194 134.042 38.9418ZM138.543 38.9418C138.543 37.8189 137.716 36.9014 136.577 36.9014C135.438 36.9014 134.624 37.8059 134.624 38.9418C134.624 40.0646 135.451 40.9822 136.59 40.9822C137.732 40.9822 138.543 40.0776 138.543 38.9418Z" fill="#268DA6"/>
<path d="M142.228 36.4727H142.798L144.614 39.1681L146.43 36.4727H147V41.4138H146.438V37.411L144.622 40.057H144.593L142.777 37.4162V41.4112H142.228V36.4727Z" fill="#268DA6"/>
<path d="M55.1631 32.2772C53.8376 31.3518 52.722 30.1926 51.869 28.8436H43.7007V23.6451H50.05C49.9844 23.1045 49.9477 22.5508 49.9477 21.9842C49.9477 21.3604 49.9923 20.7522 50.0737 20.1569H43.7007V15.1274H51.9136C52.8559 13.6563 54.1105 12.406 55.5962 11.4365H38.8843V32.2772H55.1631Z" fill="#5B6164"/>
<path d="M115.738 32.2772C114.412 31.3518 113.297 30.1926 112.444 28.8436H104.275V23.6451H110.625C110.559 23.1045 110.522 22.5508 110.522 21.9842C110.522 21.3604 110.567 20.7522 110.648 20.1569H104.275V15.1274H112.488C113.431 13.6563 114.685 12.406 116.171 11.4365H99.459V32.2772H115.738Z" fill="#5B6164"/>
<path d="M58.9453 32.2775H68.7305C70.5153 31.6589 71.9379 30.7855 72.9957 29.9616V20.7421H63.8641V23.869H68.447V27.8536L68.0953 28.0823C66.9745 28.8101 65.6201 29.1636 63.9481 29.1636C59.8404 29.1636 56.8586 26.1537 56.8586 22.0105C56.8586 17.9999 59.8115 14.8574 63.5807 14.8574C65.6437 14.8574 67.3262 15.4215 69.0796 16.7263L71.8749 13.3967C70.7463 12.5233 69.5704 11.8787 68.2948 11.4395H59.2314C54.8008 13.012 51.8086 16.9966 51.8086 21.9144C51.8112 26.7853 54.6302 30.653 58.9453 32.2775Z" fill="#5B6164"/>
<path d="M92.17 11.4365L86.3089 20.8587L80.4478 11.4365H74.7363V32.2953H79.4872V17.7475L86.2407 27.9754L93.0309 17.6799V32.2953H97.8815V11.4365H92.17Z" fill="#5B6164"/>
<path d="M133.397 15.2889H133.452V15.3149H136.079V32.2749H141.35V15.3149H147.933V11.4316H129.294C130.953 12.4323 132.35 13.7424 133.397 15.2889Z" fill="#5B6164"/>
<path d="M117.877 31.8148V17.9609L129.066 32.2775H133.45V15.3045H129.103L129.024 25.4051L118.454 11.8735C116.368 12.8197 114.64 14.3402 113.488 16.2792L113.454 16.3364V27.7081C114.486 29.4625 116.013 30.8687 117.877 31.8148Z" fill="#5B6164"/>
</g>
<defs>
<clipPath id="clip0">
<rect width="147" height="48" fill="white"/>
</clipPath>
</defs>
</svg>
