<svg width="24" height="24" viewBox="0 0 24 24" fill="none" xmlns="http://www.w3.org/2000/svg">
<g clip-path="url(#clip0)">
<path d="M21.8868 5.96771C21.8427 5.90848 21.7872 5.85852 21.7237 5.82071C21.6602 5.7829 21.5899 5.75797 21.5168 5.74735C21.4437 5.73673 21.3691 5.74062 21.2975 5.75881C21.2259 5.777 21.1585 5.80912 21.0993 5.85334L12.0262 12.6258C11.9938 12.6502 11.9543 12.6633 11.9137 12.6633C11.8731 12.6633 11.8337 12.6502 11.8012 12.6258L2.90621 5.82334C2.84749 5.77853 2.78051 5.74572 2.7091 5.72679C2.6377 5.70786 2.56326 5.70318 2.49005 5.71302C2.41684 5.72286 2.34628 5.74702 2.2824 5.78412C2.21853 5.82123 2.16259 5.87055 2.11777 5.92928C2.07296 5.988 2.04015 6.05498 2.02122 6.12638C2.00229 6.19779 1.99761 6.27222 2.00745 6.34544C2.01729 6.41865 2.04145 6.48921 2.07856 6.55308C2.11566 6.61696 2.16499 6.6729 2.22371 6.71772L9.21746 12.0671L2.30059 17.2796C2.241 17.324 2.19075 17.3798 2.15271 17.4436C2.11466 17.5075 2.08957 17.5782 2.07886 17.6518C2.06815 17.7254 2.07204 17.8003 2.0903 17.8724C2.10856 17.9444 2.14083 18.0122 2.18527 18.0718C2.22972 18.1314 2.28546 18.1816 2.34933 18.2197C2.41319 18.2577 2.48392 18.2828 2.55749 18.2935C2.63105 18.3042 2.706 18.3003 2.77806 18.2821C2.85012 18.2638 2.91787 18.2315 2.97746 18.1871L10.1456 12.7758L11.1168 13.5258C11.3433 13.6992 11.6201 13.7941 11.9053 13.7961C12.1905 13.7981 12.4685 13.7072 12.6975 13.5371L13.7175 12.7758L20.97 18.1871C21.0292 18.2313 21.0965 18.2634 21.1681 18.2816C21.2398 18.2997 21.3143 18.3036 21.3874 18.293C21.4605 18.2824 21.5308 18.2575 21.5943 18.2197C21.6578 18.1819 21.7133 18.1319 21.7575 18.0727C21.8017 18.0135 21.8338 17.9462 21.8519 17.8745C21.8701 17.8029 21.874 17.7284 21.8634 17.6553C21.8528 17.5822 21.8278 17.5118 21.79 17.4483C21.7522 17.3848 21.7023 17.3294 21.6431 17.2852L14.6568 12.0652L21.7725 6.74959C21.8905 6.66047 21.9687 6.52845 21.9901 6.38212C22.0115 6.23578 21.9744 6.08691 21.8868 5.96771Z" fill="#268DA6"/>
<path d="M21.1875 3.5625H2.8125C2.06658 3.5625 1.35121 3.85882 0.823762 4.38626C0.296316 4.91371 0 5.62908 0 6.375L0 17.625C0 18.3709 0.296316 19.0863 0.823762 19.6137C1.35121 20.1412 2.06658 20.4375 2.8125 20.4375H21.1875C21.9334 20.4375 22.6488 20.1412 23.1762 19.6137C23.7037 19.0863 24 18.3709 24 17.625V6.375C24 5.62908 23.7037 4.91371 23.1762 4.38626C22.6488 3.85882 21.9334 3.5625 21.1875 3.5625ZM22.875 17.625C22.875 18.0726 22.6972 18.5018 22.3807 18.8182C22.0643 19.1347 21.6351 19.3125 21.1875 19.3125H2.8125C2.36495 19.3125 1.93572 19.1347 1.61926 18.8182C1.30279 18.5018 1.125 18.0726 1.125 17.625V6.375C1.125 5.92745 1.30279 5.49823 1.61926 5.18176C1.93572 4.86529 2.36495 4.6875 2.8125 4.6875H21.1875C21.6351 4.6875 22.0643 4.86529 22.3807 5.18176C22.6972 5.49823 22.875 5.92745 22.875 6.375V17.625Z" fill="#268DA6"/>
</g>
<defs>
<clipPath id="clip0">
<rect width="24" height="24" fill="white"/>
</clipPath>
</defs>
</svg>
