<svg width="24" height="24" viewBox="0 0 24 24" fill="none" xmlns="http://www.w3.org/2000/svg">
<g clip-path="url(#clip0)">
<path d="M20.5208 3.14396C18.4933 1.11641 15.7974 -0.000113402 12.9302 8.63884e-09C12.4603 8.63884e-09 12.0796 0.380832 12.0796 0.850577C12.0796 1.32032 12.4604 1.70115 12.9302 1.70115C15.3431 1.70104 17.6116 2.64065 19.3179 4.3469C21.0243 6.05316 21.9639 8.32182 21.9638 10.7349C21.9638 11.2046 22.3445 11.5854 22.8143 11.5854C23.2841 11.5854 23.6649 11.2046 23.6649 10.735C23.665 7.86739 22.5485 5.17151 20.5208 3.14396Z" fill="#268DA6"/>
<path d="M17.0219 10.7347C17.0219 11.2044 17.4027 11.5852 17.8726 11.5851C18.3423 11.5851 18.7231 11.2043 18.7231 10.7345C18.7228 7.54092 16.1241 4.94235 12.9303 4.94189C12.9302 4.94189 12.9303 4.94189 12.9302 4.94189C12.4604 4.94189 12.0797 5.32261 12.0796 5.79236C12.0796 6.2621 12.4603 6.64293 12.9301 6.64305C15.1861 6.64339 17.0217 8.47882 17.0219 10.7347Z" fill="#268DA6"/>
<path d="M15.1398 15.0716C13.8433 15.0045 13.1828 15.9687 12.866 16.4319C12.6008 16.8196 12.7001 17.3489 13.0879 17.6142C13.4756 17.8794 14.0049 17.7801 14.2702 17.3923C14.6444 16.8451 14.814 16.759 15.044 16.7699C15.7801 16.8565 18.6795 18.9811 18.9698 19.6454C19.0426 19.8411 19.0399 20.0329 18.9617 20.2661C18.6573 21.1696 18.1535 21.8044 17.5043 22.102C16.8876 22.3848 16.1315 22.3591 15.3182 22.0282C12.2814 20.7904 9.6283 19.0631 7.43267 16.894C7.43177 16.8931 7.43086 16.8923 7.43007 16.8914C5.26552 14.6979 3.54134 12.0482 2.30562 9.01607C1.97458 8.20212 1.94895 7.4459 2.23168 6.82929C2.52927 6.18013 3.16414 5.67625 4.06677 5.3722C4.30085 5.29372 4.49229 5.29122 4.6861 5.36335C5.35284 5.6547 7.47736 8.55392 7.5631 9.28179C7.57535 9.5204 7.48859 9.68984 6.94183 10.0634C6.55397 10.3283 6.45428 10.8576 6.71932 11.2455C6.98425 11.6334 7.51342 11.7329 7.9014 11.468C8.36479 11.1516 9.32878 10.4929 9.26187 9.19197C9.18815 7.83309 6.54479 4.23446 5.28173 3.77005C4.72001 3.56069 4.12915 3.55706 3.5249 3.75984C2.16533 4.21768 1.18343 5.03401 0.685329 6.12048C0.202202 7.17451 0.217512 8.39742 0.730126 9.65763C2.0526 12.9025 3.90289 15.7418 6.2295 18.0967C6.23518 18.1025 6.24096 18.1082 6.24686 18.1137C8.60012 20.436 11.4361 22.2829 14.6766 23.6038C15.3256 23.8677 15.9646 23.9998 16.5758 23.9998C17.1513 23.9998 17.7022 23.8828 18.2132 23.6485C19.2998 23.1505 20.116 22.1687 20.5742 20.8082C20.7765 20.2051 20.7732 19.6145 20.5655 19.0554C20.0995 17.7889 16.5008 15.1456 15.1398 15.0716Z" fill="#268DA6"/>
</g>
<defs>
<clipPath id="clip0">
<rect width="24" height="24" fill="white"/>
</clipPath>
</defs>
</svg>
