<svg width="14" height="24" viewBox="0 0 14 24" fill="none" xmlns="http://www.w3.org/2000/svg">
<g clip-path="url(#clip0)">
<path d="M2.71325 0.25C2.0027 0.25 1.39711 0.516667 0.896484 1.05C0.395863 1.58333 0.145553 2.21667 0.145553 2.95V21.05C0.145553 21.7833 0.395863 22.4167 0.896484 22.95C1.39711 23.4833 2.0027 23.75 2.71325 23.75H10.9977C11.7083 23.75 12.3139 23.4833 12.8145 22.95C13.3151 22.4167 13.5654 21.7833 13.5654 21.05V2.95C13.5654 2.21667 13.3151 1.58333 12.8145 1.05C12.3139 0.516667 11.7083 0.25 10.9977 0.25H2.71325ZM6.85549 22.65C6.41947 22.65 6.04804 22.5 5.74121 22.2C5.43437 21.9 5.28096 21.525 5.28096 21.075C5.28096 20.625 5.43437 20.2417 5.74121 19.925C6.04804 19.6083 6.41947 19.45 6.85549 19.45C7.29152 19.45 7.65487 19.6083 7.94555 19.925C8.23624 20.2417 8.38158 20.625 8.38158 21.075C8.38158 21.525 8.23624 21.9 7.94555 22.2C7.65487 22.5 7.29152 22.65 6.85549 22.65ZM2.18034 18.4V3.45H11.4822V18.4H2.18034Z" fill="#268DA6"/>
</g>
<defs>
<clipPath id="clip0">
<rect width="13.5652" height="24" fill="white" transform="matrix(-1 0 0 1 13.5654 0)"/>
</clipPath>
</defs>
</svg>
