<svg width="28" height="29" viewBox="0 0 28 29" fill="none" xmlns="http://www.w3.org/2000/svg">
<g clip-path="url(#clip0)">
<rect y="0.487793" width="28" height="28" rx="2" fill="#40B3E0"/>
<path d="M14 0.487793C6.26795 0.487793 0 6.75575 0 14.4878C0 22.2198 6.26795 28.4878 14 28.4878C21.732 28.4878 28 22.2198 28 14.4878C28 6.75575 21.732 0.487793 14 0.487793Z" fill="#40B3E0"/>
<path d="M20.8123 8.54099L18.3117 21.1485C18.3117 21.1485 17.962 22.0229 17.0003 21.6032L11.2299 17.1792L9.13163 16.1651L5.59947 14.976C5.59947 14.976 5.05741 14.7837 5.00491 14.364C4.95241 13.9443 5.61697 13.7171 5.61697 13.7171L19.6581 8.20893C19.6581 8.20893 20.8122 7.70187 20.8122 8.54121" fill="white"/>
<path d="M10.7862 21.0066C10.7862 21.0066 10.6178 20.9909 10.4078 20.3263C10.1981 19.6619 9.13135 16.1647 9.13135 16.1647L17.6121 10.7791C17.6121 10.7791 18.1017 10.4818 18.0842 10.7791C18.0842 10.7791 18.1716 10.8316 17.9092 11.0764C17.6471 11.3213 11.2472 17.0741 11.2472 17.0741" fill="#D2E5F1"/>
<path d="M13.4426 18.8754L11.1602 20.9564C11.1602 20.9564 10.9817 21.0918 10.7866 21.0069L11.2237 17.1416" fill="#B5CFE4"/>
</g>
<defs>
<clipPath id="clip0">
<rect width="28" height="28" fill="white" transform="translate(0 0.487793)"/>
</clipPath>
</defs>
</svg>
