<svg width="28" height="29" viewBox="0 0 28 29" fill="none" xmlns="http://www.w3.org/2000/svg">
<rect y="0.456055" width="28" height="28" rx="2" fill="#7521FF"/>
<path d="M13.6578 2.45955C11.7554 2.4828 7.66523 2.79934 5.37754 4.92435C3.67585 6.63156 3.08171 9.15562 3.01207 12.2768C2.95428 15.3866 2.88465 21.2269 8.44459 22.8171V25.2391C8.44459 25.2391 8.40977 26.2082 9.04244 26.407C9.82179 26.6568 10.2656 25.9112 11.0064 25.1101L12.388 23.5281C16.1922 23.8484 19.1059 23.1103 19.4415 23.0008C20.2134 22.7511 24.5614 22.1885 25.2718 16.3475C26.0008 10.3153 24.917 6.51455 22.9604 4.79534H22.9486C22.3581 4.24477 19.9853 2.49405 14.6839 2.47455C14.6839 2.47455 14.2905 2.44755 13.6578 2.4588V2.45955ZM13.723 4.15551C14.2631 4.15176 14.5913 4.17501 14.5913 4.17501C19.0785 4.18701 21.2202 5.55443 21.7255 6.01499C23.3731 7.44466 24.2221 10.8711 23.6005 15.9072C23.0101 20.7903 19.4837 21.0993 18.831 21.3101C18.5532 21.4001 15.987 22.0407 12.754 21.8299C12.754 21.8299 10.3463 24.7718 9.59362 25.5294C9.47434 25.6622 9.33507 25.7012 9.24617 25.6817C9.11874 25.6502 9.08022 25.4904 9.08763 25.2714L9.11059 21.2516C4.3952 19.9315 4.67301 14.9501 4.72339 12.348C4.78117 9.74595 5.26346 7.61718 6.69919 6.17551C8.63202 4.40604 12.105 4.16751 13.7215 4.15551H13.723ZM14.0786 6.75683C14.0398 6.75643 14.0013 6.76382 13.9653 6.77856C13.9293 6.7933 13.8966 6.8151 13.869 6.84272C13.8414 6.87033 13.8194 6.9032 13.8044 6.93944C13.7894 6.97568 13.7816 7.01457 13.7815 7.05386C13.7815 7.22188 13.9164 7.35465 14.0786 7.35465C14.8131 7.34051 15.5432 7.47374 16.2266 7.74667C16.91 8.0196 17.5334 8.42682 18.0606 8.94485C19.137 10.0032 19.6615 11.4254 19.6815 13.2849C19.6815 13.4492 19.8126 13.5857 19.9786 13.5857V13.5737C20.0568 13.5739 20.1319 13.5428 20.1876 13.4871C20.2432 13.4315 20.2749 13.3558 20.2757 13.2766C20.3116 12.4014 20.1715 11.5279 19.8636 10.7092C19.5558 9.8905 19.0868 9.14374 18.4851 8.51429C17.3123 7.3539 15.8262 6.75608 14.0786 6.75608V6.75683ZM10.1737 7.44466C9.96399 7.41364 9.75013 7.45626 9.56769 7.56543H9.55213C9.12857 7.81681 8.747 8.13454 8.42162 8.50679C8.15122 8.82333 8.00453 9.14362 7.96601 9.45191C7.94304 9.63568 7.9586 9.81946 8.01268 9.99498L8.03194 10.007C8.33642 10.9131 8.73425 11.7847 9.22024 12.6053C9.84626 13.7582 10.6167 14.8244 11.5124 15.7774L11.539 15.8164L11.5813 15.8479L11.6079 15.8795L11.6391 15.9065C12.5838 16.816 13.6394 17.5997 14.7802 18.2385C16.084 18.9571 16.8752 19.2969 17.3501 19.4379V19.4454C17.4894 19.4881 17.6161 19.5077 17.7435 19.5077C18.1482 19.4776 18.5313 19.3113 18.8318 19.0351C19.1978 18.7056 19.5081 18.3176 19.7504 17.8867V17.8792C19.9779 17.4456 19.9008 17.0353 19.5726 16.7578C18.9154 16.1761 18.2046 15.6594 17.4501 15.2149C16.9449 14.9373 16.4315 15.1054 16.2233 15.3866L15.7796 15.953C15.5521 16.2342 15.1387 16.1952 15.1387 16.1952L15.1269 16.2027C12.0443 15.4054 11.222 12.2453 11.222 12.2453C11.222 12.2453 11.1834 11.8155 11.4687 11.5964L12.0243 11.1434C12.2902 10.9243 12.4755 10.4053 12.1902 9.89296C11.7542 9.12799 11.245 8.40819 10.67 7.74395C10.5443 7.58735 10.368 7.48081 10.1722 7.44316L10.1737 7.44466ZM14.5913 8.33577C14.1979 8.33577 14.1979 8.93735 14.595 8.93735C15.0841 8.94538 15.5669 9.05094 16.0158 9.24798C16.4646 9.44503 16.8707 9.72971 17.2108 10.0857C17.5211 10.4323 17.7596 10.8384 17.912 11.2799C18.0645 11.7215 18.1278 12.1895 18.0984 12.6563C18.0997 12.7353 18.1316 12.8106 18.1871 12.8661C18.2426 12.9217 18.3174 12.953 18.3954 12.9533L18.4073 12.9691C18.4859 12.9685 18.5611 12.9366 18.6167 12.8803C18.6723 12.8241 18.7038 12.7479 18.7044 12.6683C18.731 11.4764 18.3651 10.4765 17.6472 9.67544C16.9256 8.87434 15.9188 8.42503 14.6335 8.33577H14.5913ZM15.078 9.95297C14.6728 9.94097 14.6572 10.5545 15.0587 10.5665C16.0351 10.6176 16.5093 11.1171 16.5715 12.1447C16.5729 12.2227 16.6043 12.2971 16.6592 12.3519C16.714 12.4067 16.7878 12.4376 16.8649 12.438H16.8767C16.9163 12.4363 16.9552 12.4266 16.9911 12.4095C17.027 12.3924 17.0591 12.3683 17.0857 12.3384C17.1122 12.3086 17.1326 12.2738 17.1457 12.2359C17.1588 12.198 17.1643 12.1578 17.162 12.1177C17.0923 10.7781 16.3707 10.0235 15.0898 9.95372H15.078V9.95297Z" fill="white"/>
</svg>
