<svg width="28" height="28" viewBox="0 0 28 28" fill="none" xmlns="http://www.w3.org/2000/svg">
<rect y="0.913086" width="28" height="26.7826" rx="2" fill="#4ECB5C"/>
<path d="M2 25.7827L3.69516 19.8895C2.65287 18.165 2.09733 16.2061 2.10306 14.2035C2.10306 7.92819 7.46356 2.82617 14.0497 2.82617C17.2454 2.82617 20.2464 4.0103 22.4972 6.16023C24.7536 8.31016 25.9964 11.1695 25.9907 14.209C25.9907 20.4842 20.6301 25.5863 14.044 25.5863H14.0383C12.0396 25.5863 10.0751 25.1061 8.32838 24.2002L2 25.7827ZM8.62621 22.1376L8.98698 22.345C10.5104 23.2071 12.2572 23.66 14.0383 23.6655H14.044C19.5134 23.6655 23.969 19.4256 23.969 14.209C23.969 11.6824 22.9381 9.30881 21.0654 7.51892C19.1927 5.72912 16.6956 4.74694 14.044 4.74694C8.5689 4.74694 4.11325 8.98682 4.11325 14.2034C4.11325 15.9879 4.6344 17.7285 5.63094 19.2346L5.86573 19.5948L4.86355 23.0816L8.62621 22.1376V22.1376Z" fill="black" fill-opacity="0.24"/>
<path d="M2.54199 25.1743L4.15959 19.5535C3.16213 17.9049 2.63743 16.0352 2.63814 14.1323C2.63814 8.15043 7.7512 3.28418 14.0236 3.28418C17.0722 3.28418 19.9285 4.41587 22.0777 6.46364C24.227 8.5115 25.4092 11.2384 25.4092 14.1376C25.4092 20.1194 20.2961 24.9856 14.0237 24.9856H14.018C12.1119 24.9856 10.2398 24.5276 8.5769 23.6654L2.54199 25.1744V25.1743Z" fill="url(#paint0_linear)"/>
<path d="M2.12891 25.5675L3.80302 19.7474C2.77367 18.0445 2.22495 16.1098 2.23069 14.1321C2.23069 7.93474 7.52467 2.896 14.0291 2.896C17.1851 2.896 20.1487 4.06535 22.3717 6.18863C24.6 8.31191 25.8274 11.1358 25.8218 14.1375C25.8218 20.3348 20.5278 25.3736 14.0233 25.3736H14.0178C12.0476 25.3728 10.1091 24.9023 8.37873 24.0047L2.12891 25.5676V25.5675ZM8.6728 21.9677L9.02912 22.1725C10.5337 23.024 12.2587 23.4713 14.0178 23.4766H14.0234C19.4248 23.4766 23.8252 19.2894 23.8252 14.1375C23.8252 11.6424 22.8071 9.29814 20.9576 7.53055C19.1081 5.76297 16.6421 4.79294 14.0234 4.79294C8.61628 4.79294 4.21597 8.98019 4.21597 14.1321C4.21597 15.8943 4.73059 17.6134 5.71479 19.1007L5.9467 19.4564L4.95688 22.9L8.6728 21.9677V21.9677Z" fill="white"/>
<path d="M11.0767 9.42793C10.856 8.95906 10.6241 8.94823 10.4149 8.94287C10.2453 8.9375 10.0473 8.9375 9.84931 8.9375C9.65139 8.9375 9.33459 9.00755 9.06314 9.28774C8.7916 9.56803 8.03369 10.247 8.03369 11.6321C8.03369 13.0116 9.0914 14.348 9.23844 14.5366C9.38548 14.7253 11.2802 17.6515 14.2723 18.7778C16.7609 19.7156 17.27 19.5269 17.8072 19.4784C18.3502 19.4299 19.5494 18.7994 19.7982 18.1419C20.0413 17.4845 20.0413 16.924 19.9678 16.8055C19.8943 16.6868 19.6964 16.6169 19.4022 16.4767C19.1081 16.3366 17.6602 15.6576 17.3888 15.5606C17.1172 15.4636 16.9193 15.4205 16.727 15.7007C16.529 15.9809 15.9635 16.6114 15.7937 16.8001C15.624 16.9887 15.4487 17.0102 15.1546 16.8701C14.8605 16.73 13.9103 16.4336 12.7848 15.4744C11.9081 14.7307 11.3142 13.8091 11.1445 13.5289C10.9748 13.2487 11.1276 13.0977 11.2746 12.9577C11.4047 12.8337 11.5687 12.6289 11.7158 12.4673C11.8629 12.3056 11.9137 12.1871 12.0099 11.9984C12.106 11.8098 12.0608 11.6482 11.9873 11.5081C11.9137 11.3679 11.3369 9.98295 11.0767 9.42793V9.42793Z" fill="white"/>
<defs>
<linearGradient id="paint0_linear" x1="13.9751" y1="25.1729" x2="13.9751" y2="3.28287" gradientUnits="userSpaceOnUse">
<stop stop-color="#20B038"/>
<stop offset="1" stop-color="#60D66A"/>
</linearGradient>
</defs>
</svg>
