<svg width="28" height="28" viewBox="0 0 28 28" fill="none" xmlns="http://www.w3.org/2000/svg">
<path d="M25.2978 0H2.70219C1.20981 0 0 0.507621 0 2V26C0 27.4924 1.20981 28 2.70219 28H25.2978C26.7902 28 28 27.4924 28 26V2C28 0.507621 26.7902 0 25.2978 0Z" fill="#ED2524"/>
<path fill-rule="evenodd" clip-rule="evenodd" d="M17.1942 13.7989L12.0385 16.584V12.2958V10.9917L14.3649 12.2571L17.1942 13.7989ZM23.3612 10.0191C23.3612 10.0191 23.1788 8.64869 22.6041 8.04636C21.8802 7.25062 21.0679 7.2451 20.6921 7.20089C18.0231 7.00195 14.0168 7.00195 14.0168 7.00195H14.0057C14.0057 7.00195 9.99941 7.00195 7.32485 7.20089C6.95461 7.2451 6.14229 7.25062 5.41287 8.04636C4.84369 8.64869 4.65581 10.0191 4.65581 10.0191C4.65581 10.0191 4.4624 11.6327 4.4624 13.2408V13.4397V14.7549C4.4624 16.3629 4.65581 17.9765 4.65581 17.9765C4.65581 17.9765 4.84369 19.3469 5.41287 19.9493C6.14229 20.745 7.09276 20.7174 7.51825 20.8003C9.04894 20.955 14.0112 20.9992 14.0112 20.9992C14.0112 20.9992 18.0231 20.9937 20.6921 20.7947C21.0679 20.745 21.8802 20.745 22.6041 19.9493C23.1788 19.3469 23.3612 17.9765 23.3612 17.9765C23.3612 17.9765 23.5546 16.3629 23.5546 14.7549V13.5226V13.2408C23.5546 11.6327 23.3612 10.0191 23.3612 10.0191Z" fill="#FEFEFE"/>
</svg>
